<?xml version="1.0" encoding="UTF-8"?><!DOCTYPE svg PUBLIC "-//W3C//DTD SVG 1.1//EN" "http://www.w3.org/Graphics/SVG/1.1/DTD/svg11.dtd"><svg xmlns="http://www.w3.org/2000/svg"><symbol id="dropdown-arrow" viewBox="0 0 9.824 5.883"><path fill="#FFF" d="M4.83 5.883h-.008a.748.748 0 0 1-.541-.239L.202 1.261A.75.75 0 0 1 1.3.239l3.542 3.806L8.536.244A.75.75 0 0 1 9.612 1.29L5.367 5.655a.747.747 0 0 1-.537.228z"/></symbol><symbol id="magnify-glass" viewBox="0.136 0.536 19.428 19.429"><path fill="#FFF" d="M19.564 18.947l-5.603-5.605A7.814 7.814 0 0 0 7.951.536a7.816 7.816 0 0 0-.001 15.63c1.899 0 3.638-.68 4.992-1.805l5.603 5.604 1.019-1.018zM.958 8.35c0-3.854 3.136-6.992 6.992-6.992 3.855 0 6.993 3.138 6.993 6.992 0 3.855-3.138 6.994-6.993 6.994-3.856 0-6.992-3.139-6.992-6.994z"/></symbol></svg>