<svg version="1" xmlns="http://www.w3.org/2000/svg" width="96.325" height="86.753" viewBox="112.583 -44.048 96.325 86.753"><path fill="none" d="M151.646 24.29s.354 7.627-3.73 13.05h-4.224s.96 3.166 2.605 3.166h29.73s2.063-.97 2.28-2.95h-4.23s-4.208-6.364-3.806-13.268h-18.624z"/><path fill="none" stroke="#000" stroke-width=".7" stroke-miterlimit="10" d="M206.505 19.89c0 2.43-1.97 4.396-4.4 4.396h-82.72c-2.43 0-4.4-1.97-4.4-4.397v-57.34c0-2.432 1.97-4.4 4.4-4.4h82.72c2.43 0 4.4 1.97 4.4 4.4v57.34z"/><path d="M124.15-31.886c.318 0 .63-.13.857-.355.227-.228.354-.54.354-.86s-.126-.632-.35-.858c-.23-.227-.542-.354-.858-.354-.32 0-.635.13-.86.354-.226.226-.353.54-.353.86s.128.632.353.857c.225.226.54.354.86.354h-.003zm3.883 0c.316 0 .63-.13.857-.355.225-.228.354-.54.354-.86 0-.317-.13-.632-.355-.858-.23-.227-.54-.354-.858-.354-.32 0-.633.13-.857.354-.23.228-.355.54-.355.86s.127.632.354.857c.225.226.537.354.857.354h.003zm3.88 0c.32 0 .632-.13.856-.355.226-.228.354-.54.354-.86 0-.317-.13-.632-.355-.858s-.538-.354-.856-.354c-.32 0-.633.13-.855.354-.23.228-.358.54-.358.86s.13.632.357.857c.22.225.533.354.854.354zm10.446 0h43.888c.676 0 1.217-.545 1.217-1.215s-.54-1.216-1.215-1.216h-43.893c-.67 0-1.21.545-1.21 1.215s.538 1.214 1.21 1.214h.002zm54.08 0h2.587c.67 0 1.213-.545 1.213-1.215s-.543-1.216-1.213-1.216h-2.588c-.673 0-1.214.545-1.214 1.215s.54 1.214 1.213 1.214z"/><path fill="none" stroke="#000" stroke-width=".7" stroke-miterlimit="10" d="M119.48-28.53H202"/><path d="M180.058-6.11c-1.463 0-2.656-1.192-2.656-2.66v-3.87c0-2.8-2.273-5.08-5.068-5.08h-1.29c-.665 0-1.204.543-1.204 1.21s.54 1.21 1.207 1.21h1.29c1.462 0 2.653 1.193 2.653 2.66v3.87c0 1.55.695 2.94 1.787 3.87-1.092.934-1.787 2.32-1.787 3.87v3.87c0 1.47-1.19 2.66-2.656 2.66h-1.29c-.665 0-1.204.542-1.204 1.21s.54 1.21 1.207 1.21h1.29c2.792 0 5.065-2.28 5.065-5.08v-3.87c0-1.467 1.195-2.66 2.658-2.66.668 0 1.21-.542 1.21-1.21s-.542-1.21-1.21-1.21h-.002zm-33.564-2.66v-3.87c0-1.467 1.19-2.66 2.656-2.66h1.29c.665 0 1.206-.54 1.206-1.21s-.54-1.21-1.207-1.21h-1.29c-2.797 0-5.07 2.28-5.07 5.08v3.87c0 1.468-1.19 2.66-2.658 2.66-.666 0-1.205.544-1.205 1.21s.54 1.21 1.205 1.21c1.467 0 2.658 1.193 2.658 2.66v3.87c0 2.8 2.273 5.08 5.07 5.08h1.29c.663 0 1.204-.542 1.204-1.21s-.54-1.21-1.205-1.21h-1.292c-1.465 0-2.656-1.19-2.656-2.66v-3.87c0-1.55-.693-2.937-1.79-3.87 1.097-.933 1.79-2.32 1.79-3.87h.002zM167.18.34c-.315 0-.63.132-.853.356-.225.223-.354.535-.354.854 0 .32.13.63.354.855.223.225.537.354.854.354.32 0 .63-.13.855-.355.227-.225.354-.537.354-.854 0-.317-.13-.63-.355-.853-.225-.225-.537-.355-.854-.356zm-6.44 0c-.316 0-.627.132-.852.356-.227.223-.355.535-.355.854 0 .32.13.63.355.855s.535.354.854.354.63-.13.855-.355c.225-.225.352-.537.352-.854 0-.317-.128-.63-.353-.853-.227-.226-.537-.355-.855-.355h-.002zm-6.44 0c-.316 0-.627.132-.85.356-.227.223-.355.535-.355.854 0 .32.13.63.354.855.224.225.534.354.85.354.32 0 .632-.13.855-.355.227-.225.355-.537.355-.854 0-.317-.13-.63-.355-.853-.226-.225-.538-.355-.855-.356z"/><path fill="none" stroke="#000" stroke-width=".7" stroke-miterlimit="10" d="M151.646 24.29s.96 4.726-3.73 13.05m22.44-13.05s-.96 4.726 3.728 13.05m-30.39.215c.173 1.29 1.27 2.95 2.604 2.95h29.406c1.336 0 2.432-1.66 2.604-2.95h-34.615zM202 17.805c0 1.1-.897 2-2 2h-78.52c-1.1 0-2-.9-2-2v-53.66c0-1.1.9-2 2-2H200c1.103 0 2 .9 2 2v53.66z"/></svg>
