<svg version="1" xmlns="http://www.w3.org/2000/svg" width="43.975" height="44.697" viewBox="102.568 -11.83 43.975 44.697"><g fill="none" stroke="#000" stroke-width=".7" stroke-miterlimit="10"><path d="M134.457-6.437l-19.774.016c-3.9.003-7.068 3.165-7.068 7.067L107.6 20.42c-.006 3.896 3.152 7.06 7.055 7.055l19.772-.016c3.9-.005 7.065-3.17 7.065-7.07l.02-19.772c.003-3.9-3.156-7.06-7.055-7.055zM112.992 18.277h7.71M116.847 14.424v7.71M114.12.01l5.452 5.452M119.572.01l-5.45 5.452M128.492 19.36h7.71M128.492 17.195h7.71M128.492 3.116h7.71"/><circle cx="132.347" cy=".866" r=".854"/><circle cx="132.347" cy="5.235" r=".854"/><path d="M124.556-6.437v33.902M141.507 10.514h-33.902"/></g></svg>
