<svg version="1" xmlns="http://www.w3.org/2000/svg" width="96.167" height="89.742" viewBox="108.251 -40.063 96.167 89.742"><path fill="none" stroke="#000" stroke-width=".7" stroke-miterlimit="10" d="M202.094 33.478c0 2.43-1.97 4.4-4.4 4.4h-82.718c-2.432 0-4.4-1.97-4.4-4.4V-23.86c0-2.43 1.97-4.4 4.4-4.4h82.718c2.432 0 4.4 1.97 4.4 4.4v57.338z"/><path d="M119.74-18.297c.317 0 .632-.13.858-.356.225-.225.354-.54.354-.858 0-.32-.13-.634-.354-.86-.227-.226-.54-.354-.86-.354-.32 0-.632.13-.858.354-.225.227-.354.54-.354.86s.13.633.354.857c.226.226.54.356.86.356zm0 0M123.622-18.297c.316 0 .63-.13.857-.356.224-.225.354-.54.354-.858s-.13-.634-.355-.86c-.23-.226-.542-.354-.858-.354-.32 0-.633.13-.857.354-.227.227-.355.54-.355.86s.13.633.355.857c.224.226.537.356.857.356zm0 0M127.503-18.297c.316 0 .633-.13.855-.356.227-.225.355-.54.355-.858s-.13-.634-.355-.86c-.223-.226-.54-.354-.855-.354-.32 0-.633.13-.857.354-.227.227-.357.54-.357.86s.13.633.356.857c.224.226.537.356.857.356zm0 0M137.948-18.297h43.89c.674 0 1.217-.545 1.217-1.215s-.543-1.214-1.217-1.214h-43.89c-.672 0-1.213.543-1.213 1.214 0 .67.54 1.215 1.213 1.215zm0 0M192.03-18.297h2.587c.67 0 1.21-.545 1.21-1.215s-.54-1.214-1.21-1.214h-2.588c-.673 0-1.214.543-1.214 1.214 0 .67.54 1.215 1.213 1.215zm0 0"/><path fill="none" stroke="#000" stroke-width=".7" stroke-miterlimit="10" d="M115.07-14.942h82.52M197.59 31.394c0 1.1-.9 2-2 2h-78.52c-1.1 0-2-.9-2-2v-53.658c0-1.1.9-2 2-2h78.52c1.1 0 2 .9 2 2v53.658z"/><path d="M155.575-9.017c17.68 7.8 14.76 20.516 14.76 20.516s5.394 4.215 4.41 8.97c0 0-2.417-2.745-5.497-2.176-2.977.548-4.154 3.957-10.165 5.064-13.35 2.462-21.717-7.535-21.717-7.535 13.48 5.72 20.658-1.415 20.658-1.415C152.02 12.253 137.73-.675 137.73-.675c11.618 6.705 16.364 8.15 16.364 8.15C151.106 5.813 141.92-3.31 141.92-3.31c6.895 4.82 19.944 10.894 19.944 10.894 1.628-9.674-6.29-16.6-6.29-16.6"/></svg>
