<svg version="1" xmlns="http://www.w3.org/2000/svg" width="43.975" height="44.697" viewBox="102.568 -11.83 43.975 44.697"><path d="M141.964 27.002v-9.607a.91.91 0 0 0-.91-.91h-9.587a.91.91 0 0 0-.912.91v9.607c0 .502.406.908.912.908h9.587c.502 0 .91-.406.91-.908zm-23.409-4.805c0-3.148-2.56-5.713-5.705-5.713s-5.702 2.564-5.702 5.713c0 3.152 2.558 5.713 5.702 5.713a5.714 5.714 0 0 0 5.705-5.713zm0-23.357c0-3.15-2.56-5.713-5.705-5.713s-5.702 2.563-5.702 5.713 2.558 5.714 5.702 5.714c3.145 0 5.705-2.562 5.705-5.714zM119.47 22.197c0 .504.405.912.908.912h5.663l-1.008 1.01a.913.913 0 0 0 0 1.285.907.907 0 0 0 1.287 0l2.56-2.563a.913.913 0 0 0 0-1.287l-2.56-2.563a.91.91 0 1 0-1.286 1.287l1.007 1.007h-5.662c-.503 0-.91.41-.91.91zm.422-23.191a.91.91 0 0 0 0 1.29l2.558 2.562a.908.908 0 0 0 1.288 0 .914.914 0 0 0 0-1.288l-.998-1c6.715.2 12.12 5.937 12.12 12.968 0 .5.405.91.906.91a.91.91 0 0 0 .91-.91c0-8.042-6.23-14.602-13.952-14.792l1.014-1.014a.91.91 0 1 0-1.288-1.288l-2.558 2.562zm-3.818 13.849a.909.909 0 1 0-1.285-1.287l-1.01 1.008V6.49a.906.906 0 0 0-.904-.91.91.91 0 0 0-.912.91v6.086l-1.007-1.008a.904.904 0 0 0-1.284 0 .9.9 0 0 0-.268.645.9.9 0 0 0 .268.643l2.56 2.564a.907.907 0 0 0 1.284 0l2.557-2.565zm0 0" fill="none" stroke="#000" stroke-width=".7" stroke-miterlimit="10"/></svg>