<svg version="1" xmlns="http://www.w3.org/2000/svg" width="96.167" height="89.742" viewBox="108.251 -40.063 96.167 89.742"><path fill="none" stroke="#000" stroke-width=".7" stroke-miterlimit="10" d="M202.094 33.477a4.4 4.4 0 0 1-4.398 4.4h-82.72a4.4 4.4 0 0 1-4.4-4.4V-23.86a4.4 4.4 0 0 1 4.4-4.4h82.72c2.43 0 4.398 1.97 4.398 4.4v57.337z"/><path d="M119.74-18.297c.318 0 .63-.13.86-.356a1.23 1.23 0 0 0 .353-.858c0-.322-.13-.634-.354-.86a1.231 1.231 0 0 0-.86-.355c-.32 0-.633.13-.86.355-.224.227-.353.54-.353.86 0 .318.13.632.354.857.227.226.54.356.86.356zm3.88 0a1.221 1.221 0 0 0 1.215-1.214c0-.32-.13-.634-.357-.86s-.54-.355-.857-.355a1.216 1.216 0 0 0-1.211 1.215 1.215 1.215 0 0 0 1.211 1.213zm3.882 0c.318 0 .633-.13.857-.356.226-.226.354-.54.354-.858 0-.32-.13-.634-.355-.86-.226-.227-.54-.355-.858-.355a1.22 1.22 0 0 0-1.212 1.215 1.217 1.217 0 0 0 1.212 1.213zm10.448 0h43.89a1.215 1.215 0 0 0 0-2.43h-43.89c-.673 0-1.214.544-1.214 1.215 0 .67.54 1.215 1.213 1.215zm54.08 0h2.587a1.215 1.215 0 0 0 0-2.43h-2.588c-.673 0-1.214.544-1.214 1.215 0 .67.54 1.215 1.213 1.215zm0 0"/><path fill="none" stroke="#000" stroke-width=".7" stroke-miterlimit="10" d="M115.068-14.942h82.524m0 46.336c0 1.1-.9 2-2 2H117.07c-1.1 0-2-.9-2-2v-53.66c0-1.1.9-2 2-2h78.522c1.1 0 2 .9 2 2v53.66z"/><path d="M158.266-9.404v4.945a4.93 4.93 0 0 1 2.05-.447c.665 0 1.312.133 1.92.394a4.87 4.87 0 0 1 1.567 1.068 4.88 4.88 0 0 1 1.41 3.518 4.887 4.887 0 0 1-1.44 3.4 4.872 4.872 0 0 1-3.4 1.44h-.06c-.71 0-1.408-.155-2.047-.448l-.002 4.904h5.863c-.145.247-.354.557-.594.91-.467.68-.814 1.47-.8 2.36a3.738 3.738 0 0 0 3.673 3.687h.053a3.73 3.73 0 0 0 3.726-3.733c0-.873-.342-1.645-.8-2.31a18.102 18.102 0 0 1-.597-.915h5.472c.865 0 1.566-.703 1.566-1.568V-7.836c0-.867-.7-1.568-1.566-1.568h-15.996zm0 0"/><path d="M143.264 8.225a4.969 4.969 0 0 1-.447-2.05c0-1.31.512-2.544 1.436-3.47a4.855 4.855 0 0 1 3.465-1.44h.072c1.277.02 2.484.53 3.395 1.444s1.42 2.12 1.436 3.402a4.941 4.941 0 0 1-.444 2.112h4.92l-.002-5.886c.21.12.592.378.945.622.653.452 1.417.775 2.276.775h.045a3.743 3.743 0 0 0 3.68-3.68 3.726 3.726 0 0 0-.483-1.896 3.723 3.723 0 0 0-3.24-1.894c-.86 0-1.605.35-2.277.776-.414.262-.736.502-.943.62v-7.05H139.92c-.862 0-1.563.703-1.563 1.57V8.22h4.907zm0 0"/><path d="M139.914 28.173h17.174V20.97s-.63.546-.83.69a3.71 3.71 0 0 1-2.38.862 3.73 3.73 0 0 1-3.73-3.788c.03-2.013 1.67-3.655 3.678-3.68.018-.002.035-.002.05-.002.905 0 1.735.324 2.382.862.2.143.83.69.83.69V9.398h-7.04c.058-.11.372-.59.628-.95.467-.662.78-1.45.77-2.323a3.744 3.744 0 0 0-3.674-3.686h-.055c-.963 0-1.842.367-2.502.97a3.727 3.727 0 0 0-1.225 2.765c0 .856.32 1.62.77 2.274a15.312 15.312 0 0 1 .625.948h-7.037v17.207c0 .865.7 1.568 1.566 1.568zm0 0"/></svg>