<svg version="1" xmlns="http://www.w3.org/2000/svg" width="96.167" height="89.742" viewBox="108.251 -40.063 96.167 89.742"><g opacity=".6"><path fill="none" stroke="#000" stroke-width=".7" stroke-miterlimit="10" d="M202.094 33.477a4.4 4.4 0 0 1-4.398 4.401h-82.721a4.4 4.4 0 0 1-4.4-4.401V-23.86a4.4 4.4 0 0 1 4.4-4.4h82.721a4.399 4.399 0 0 1 4.398 4.4v57.337z"/><path d="M119.74-18.297c.318 0 .631-.13.859-.356.225-.226.354-.539.354-.858 0-.321-.129-.633-.354-.859a1.227 1.227 0 0 0-.859-.355c-.32 0-.633.129-.859.355a1.227 1.227 0 0 0-.354.859c0 .319.129.633.354.858.226.226.539.356.859.356zm0 0M123.621-18.297a1.22 1.22 0 0 0 1.214-1.214c0-.32-.131-.633-.357-.859s-.539-.355-.857-.355a1.214 1.214 0 0 0 0 2.428zm0 0M127.502-18.297a1.218 1.218 0 0 0 .857-2.073 1.213 1.213 0 1 0-.857 2.073zm0 0M137.949-18.297h43.891a1.215 1.215 0 0 0 0-2.43h-43.891c-.672 0-1.213.544-1.213 1.215 0 .67.541 1.215 1.213 1.215zm0 0M192.029-18.297h2.588a1.215 1.215 0 0 0 0-2.43h-2.588c-.672 0-1.213.544-1.213 1.215 0 .67.541 1.215 1.213 1.215zm0 0"/><path fill="none" stroke="#000" stroke-width=".7" stroke-miterlimit="10" d="M115.068-14.942h82.524M197.592 31.394c0 1.1-.9 2-2 2h-78.523c-1.1 0-2-.9-2-2v-53.659c0-1.1.9-2 2-2h78.523c1.1 0 2 .9 2 2v53.659z"/><path d="M158.266-9.404v4.945a4.911 4.911 0 0 1 3.971-.054c.588.252 1.115.61 1.566 1.068a4.881 4.881 0 0 1 1.41 3.518 4.884 4.884 0 0 1-1.441 3.401 4.865 4.865 0 0 1-3.398 1.438l-.061.001a4.91 4.91 0 0 1-2.047-.448l-.002 4.904h5.863c-.145.248-.354.558-.594.91-.467.682-.814 1.47-.801 2.362a3.74 3.74 0 0 0 3.674 3.686h.053a3.73 3.73 0 0 0 3.727-3.733c0-.873-.342-1.645-.801-2.311a18.278 18.278 0 0 1-.596-.914h5.473c.865 0 1.566-.702 1.566-1.567V-7.836c0-.867-.701-1.568-1.566-1.568h-15.996zm0 0"/><path d="M143.264 8.225a4.95 4.95 0 0 1-.447-2.05c0-1.311.512-2.544 1.436-3.471a4.861 4.861 0 0 1 3.465-1.438h.072c1.277.019 2.484.53 3.395 1.443s1.42 2.122 1.436 3.403a4.942 4.942 0 0 1-.445 2.112h4.92l-.002-5.886c.209.119.592.378.945.622.654.452 1.418.775 2.277.775h.045a3.744 3.744 0 0 0 3.68-3.681 3.723 3.723 0 0 0-.484-1.895 3.723 3.723 0 0 0-3.24-1.893c-.859 0-1.605.35-2.277.776-.414.262-.736.502-.943.621v-7.05h-17.176c-.863 0-1.564.702-1.564 1.568v16.04h4.907zm0 0"/><path d="M139.914 28.173h17.174v-7.202s-.629.545-.83.688a3.706 3.706 0 0 1-2.381.863 3.732 3.732 0 0 1-3.729-3.788c.029-2.013 1.67-3.655 3.678-3.681l.051-.001c.904 0 1.734.324 2.381.862.201.143.83.689.83.689V9.399h-7.039c.057-.11.371-.588.627-.95.467-.661.779-1.448.77-2.322a3.744 3.744 0 0 0-3.674-3.686h-.055c-.963 0-1.842.366-2.502.968a3.73 3.73 0 0 0-1.225 2.766c0 .856.32 1.62.77 2.274a15.44 15.44 0 0 1 .625.95h-7.037v17.206c0 .865.701 1.568 1.566 1.568zm0 0"/></g></svg>