<svg version="1" xmlns="http://www.w3.org/2000/svg" width="43.975" height="44.697" viewBox="102.568 -11.83 43.975 44.697"><g fill="none" stroke="#000" stroke-width=".7" stroke-miterlimit="10"><path d="M141.964 27.002v-9.607a.91.91 0 0 0-.91-.91h-9.587a.91.91 0 0 0-.912.91v9.607c0 .502.406.908.912.908h9.587c.502 0 .91-.406.91-.908zm-9.59-.912M118.555 22.197c0-3.148-2.56-5.713-5.705-5.713s-5.702 2.564-5.702 5.713c0 3.152 2.558 5.713 5.702 5.713a5.714 5.714 0 0 0 5.705-5.713zm-9.591 0M118.555-1.16c0-3.149-2.56-5.713-5.705-5.713s-5.702 2.563-5.702 5.713c0 3.151 2.558 5.714 5.702 5.714 3.145 0 5.705-2.562 5.705-5.714zm-9.591 0M119.469 22.197a.91.91 0 0 0 .909.912h5.663l-1.009 1.01a.91.91 0 0 0 0 1.286.907.907 0 0 0 1.287 0l2.561-2.563a.913.913 0 0 0 0-1.287l-2.561-2.563a.908.908 0 1 0-1.285 1.287l1.007 1.008h-5.663a.91.91 0 0 0-.909.91zm0 0M119.892-.994a.91.91 0 0 0 0 1.29l2.558 2.562a.908.908 0 0 0 1.288 0 .914.914 0 0 0 0-1.288l-.998-.999c6.715.199 12.119 5.936 12.119 12.967 0 .5.406.91.907.91a.91.91 0 0 0 .91-.91c0-8.042-6.229-14.602-13.952-14.792l1.014-1.014a.91.91 0 1 0-1.288-1.288l-2.558 2.562zm0 0M116.074 12.855a.909.909 0 1 0-1.285-1.287l-1.008 1.008V6.49a.907.907 0 1 0-1.817 0v6.086l-1.007-1.008a.904.904 0 0 0-1.284 0 .9.9 0 0 0-.268.645.9.9 0 0 0 .268.643l2.559 2.564a.908.908 0 0 0 1.285 0l2.557-2.565zm0 0"/></g></svg>