<svg version="1" xmlns="http://www.w3.org/2000/svg" width="103.5" height="15.386" viewBox="0 0 103.5 15.800"><path fill="#FFF" d="M103.3 13.626c0 .857-.7 1.56-1.56 1.56H89.875c-.857 0-1.56-.702-1.56-1.56V1.76c0-.857.702-1.56 1.56-1.56h11.867c.858 0 1.56.702 1.56 1.56v11.866z"/><path fill="#FFF" stroke="#F79421" stroke-width=".4" stroke-miterlimit="10" d="M103.3 13.626c0 .857-.7 1.56-1.56 1.56H89.875c-.857 0-1.56-.702-1.56-1.56V1.76c0-.857.702-1.56 1.56-1.56h11.867c.858 0 1.56.702 1.56 1.56v11.866z"/><path fill="none" stroke="#F79421" stroke-width=".4" stroke-miterlimit="10" d="M88.315 3.415H103.3"/><path fill="#FFF" d="M15.187 13.626c0 .857-.704 1.56-1.56 1.56H1.76c-.858 0-1.56-.702-1.56-1.56V1.76C.2.903.9.2 1.76.2h11.868c.855 0 1.56.702 1.56 1.56v11.866z"/><path fill="#FFF" stroke="#2AAAE2" stroke-width=".4" stroke-miterlimit="10" d="M15.187 13.626c0 .857-.704 1.56-1.56 1.56H1.76c-.858 0-1.56-.702-1.56-1.56V1.76C.2.903.9.2 1.76.2h11.868c.855 0 1.56.702 1.56 1.56v11.866z"/><path fill="none" stroke="#2AAAE2" stroke-width=".4" stroke-miterlimit="10" d="M.2 3.415h14.985"/><path fill="#FFF" d="M81.272 13.628c0 .856-.7 1.558-1.56 1.558H67.846c-.857 0-1.56-.7-1.56-1.558V1.758c0-.856.702-1.558 1.56-1.558h11.87c.856 0 1.558.7 1.558 1.558v11.87z"/><path fill="#FFF" stroke="#ED237A" stroke-width=".4" stroke-miterlimit="10" d="M81.272 13.628c0 .856-.7 1.558-1.56 1.558H67.846c-.857 0-1.56-.7-1.56-1.558V1.758c0-.856.702-1.558 1.56-1.558h11.87c.856 0 1.558.7 1.558 1.558v11.87z"/><path fill="none" stroke="#ED237A" stroke-width=".4" stroke-miterlimit="10" d="M66.286 3.414h14.986"/><path fill="#FFF" d="M59.24 13.627c0 .857-.698 1.56-1.556 1.56H45.817a1.564 1.564 0 0 1-1.558-1.56V1.76c0-.857.7-1.56 1.557-1.56h11.868c.857 0 1.557.702 1.557 1.56v11.867z"/><path fill="#FFF" stroke="#673090" stroke-width=".4" stroke-miterlimit="10" d="M59.24 13.627c0 .857-.698 1.56-1.556 1.56H45.817a1.564 1.564 0 0 1-1.558-1.56V1.76c0-.857.7-1.56 1.557-1.56h11.868c.857 0 1.557.702 1.557 1.56v11.867z"/><path fill="none" stroke="#673090" stroke-width=".4" stroke-miterlimit="10" d="M44.26 3.415h14.98"/><path fill="#FFF" d="M37.212 13.627c0 .857-.7 1.56-1.557 1.56H23.788c-.857 0-1.56-.702-1.56-1.56V1.76c0-.857.702-1.56 1.56-1.56h11.867c.855 0 1.557.702 1.557 1.56v11.867z"/><path fill="#FFF" stroke="#24B574" stroke-width=".4" stroke-miterlimit="10" d="M37.212 13.627c0 .857-.7 1.56-1.557 1.56H23.788c-.857 0-1.56-.702-1.56-1.56V1.76c0-.857.702-1.56 1.56-1.56h11.867c.855 0 1.557.702 1.557 1.56v11.867z"/><path fill="none" stroke="#24B574" stroke-width=".4" stroke-miterlimit="10" d="M22.23 3.415h14.98"/></svg>