<svg version="1" xmlns="http://www.w3.org/2000/svg" width="18.318" height="22.611" viewBox="-0.659 -95.981 18.685 22.611"><path fill="#FFF" d="M-.41-94.73c0-.55.45-1 1-1h12.175c.18 0 .646.317 1.035.706l2.902 2.902c.39.39.707 1.157.707 1.707v15.795c0 .55-.45 1-1 1H.59c-.55 0-1-.45-1-1v-20.11z"/><path fill="none" stroke="#666" stroke-width=".5" stroke-miterlimit="10" d="M-.41-94.73c0-.55.45-1 1-1h12.175c.18 0 .646.317 1.035.706l2.902 2.902c.39.39.707 1.157.707 1.707v15.795c0 .55-.45 1-1 1H.59c-.55 0-1-.45-1-1v-20.11z"/><path fill="none" stroke="#666" stroke-width=".5" stroke-miterlimit="10" d="M12.025-95.73v4.38c0 .55.45 1 1 1h4.384"/></svg>