<svg version="1" xmlns="http://www.w3.org/2000/svg" width="25.15" height="25.15" viewBox="0 0 25.15 25.15"><path fill="none" stroke="#24B574" stroke-width=".5" stroke-miterlimit="10" d="M24.723 20.223c0 2.484-2.018 4.5-4.5 4.5h-15.3a4.503 4.503 0 0 1-4.5-4.5V4.927c0-2.486 2.018-4.5 4.5-4.5h15.305c2.481 0 4.5 2.013 4.5 4.5v15.296h-.005z"/><path fill="#24B574" d="M18.461 16.659c-2.306-.531-4.445-.998-3.408-2.959 3.16-5.969.838-9.163-2.5-9.163-3.403 0-5.671 3.314-2.498 9.163 1.066 1.971-1.157 2.438-3.411 2.959-2.059.475-2.137 1.496-2.127 3.283l.002.67h16.067c0-.23.002-.441.004-.648.006-1.799-.066-2.83-2.129-3.305z"/></svg>