<svg version="1" xmlns="http://www.w3.org/2000/svg" width="24.301" height="24.3" viewBox="0 0 24.301 24.3"><path fill="#24B574" d="M24.3 19.8c0 2.484-2.015 4.5-4.5 4.5H4.5A4.501 4.501 0 0 1 0 19.8V4.5A4.5 4.5 0 0 1 4.5 0h15.3c2.485 0 4.5 2.016 4.5 4.5v15.3z"/><g fill="#FFF"><path d="M5.713 7.43l5.508 4.364c.25.195.596.283.93.268.333.016.677-.07.93-.268l5.508-4.365c.44-.35.34-.633-.22-.633H5.933c-.56 0-.66.285-.22.632zm0 0"/><path d="M18.984 8.58l-6.02 4.57c-.227.17-.52.252-.813.25-.294.002-.59-.08-.814-.25l-6.02-4.57c-.447-.338-.812-.156-.812.404v7.498c0 .56.458 1.02 1.018 1.02h13.256c.56 0 1.02-.46 1.02-1.02V8.984c0-.56-.366-.742-.814-.404zm0 0"/></g></svg>