<svg version="1" xmlns="http://www.w3.org/2000/svg" width="17.343" height="16.531" viewBox="0 0 17.343 16.531"><g fill="#666"><path d="M1.638 3.108l6.018 4.769c.273.215.651.311 1.014.293.366.018.74-.076 1.016-.293l6.02-4.769c.48-.381.372-.691-.241-.691H1.877c-.611-.001-.719.31-.239.691zm0 0"/><path d="M16.138 4.365L9.559 9.359a1.46 1.46 0 0 1-.887.271 1.466 1.466 0 0 1-.89-.271L1.205 4.365c-.49-.37-.888-.171-.888.442v8.192c0 .612.501 1.116 1.112 1.116h14.482a1.12 1.12 0 0 0 1.114-1.116V4.807c.001-.613-.399-.812-.887-.442zm0 0"/></g></svg>