<svg version="1" xmlns="http://www.w3.org/2000/svg" width="17.343" height="16.532" viewBox="5.246 1.448 17.343 16.532"><path fill="#FFF" d="M17.168 17.433a.361.361 0 0 1-.21-.19.82.82 0 0 1-.065-.356v-3.115c0-.842-.227-1.46-.678-1.848.498-.055.94-.133 1.336-.236a5.287 5.287 0 0 0 1.226-.508 3.641 3.641 0 0 0 1.057-.867c.28-.342.512-.8.69-1.367.18-.568.265-1.222.265-1.96 0-1.05-.342-1.945-1.027-2.684.32-.79.286-1.677-.103-2.658-.244-.078-.596-.03-1.055.145-.46.172-.86.364-1.2.572l-.495.312a9.24 9.24 0 0 0-2.5-.338 9.25 9.25 0 0 0-2.502.338c-.14-.098-.325-.214-.555-.353-.23-.137-.592-.305-1.088-.5-.494-.196-.867-.255-1.12-.177-.382.98-.41 1.868-.09 2.658-.687.738-1.03 1.633-1.03 2.685 0 .738.09 1.388.268 1.953s.406 1.02.684 1.37c.28.345.627.638 1.05.872s.83.402 1.224.508c.396.104.84.182 1.336.236-.348.31-.56.758-.64 1.34-.18.088-.376.152-.587.197a3.768 3.768 0 0 1-.74.065c-.287 0-.574-.096-.855-.28s-.52-.458-.72-.815a2.12 2.12 0 0 0-.634-.676c-.256-.174-.47-.28-.645-.313l-.26-.04c-.185 0-.31.02-.38.06s-.092.09-.063.15c.023.06.063.12.113.18.055.064.11.114.17.16l.094.063c.19.086.377.252.564.496.19.24.325.462.41.663l.134.3c.11.33.303.597.572.802.27.2.56.334.87.39s.616.087.905.09c.294.005.534-.01.726-.044l.3-.052c0 .33.003.777.007 1.342l.006.887c0 .19-.048.336-.144.436s-.19.156-.287.168c-.097.015-.24.333-.433.333h6.672c-.14 0-.247-.316-.32-.326a1.163 1.163 0 0 1-.252-.064z"/></svg>