<svg version="1" xmlns="http://www.w3.org/2000/svg" width="28.836" height="26.875" viewBox="-31.813 9.948 28.836 26.875"><path fill="#FFF" stroke="#999" stroke-width=".5" stroke-miterlimit="10" d="M-3.228 34.325c0 1.244-1.035 2.248-2.31 2.248h-23.718c-1.273 0-2.31-1.004-2.31-2.248V12.447c0-1.24 1.036-2.248 2.31-2.248h23.72c1.272 0 2.308 1.007 2.308 2.247v21.878z"/><path fill="#666" d="M-15.93 19.483c0 .274-.224.5-.5.5h-1.93a.501.501 0 0 1-.5-.5V17.55c0-.273.224-.5.5-.5h1.93c.276 0 .5.227.5.5v1.933zm0 4.869c0 .274-.224.5-.5.5h-1.93a.501.501 0 0 1-.5-.5V22.42c0-.274.224-.5.5-.5h1.93c.276 0 .5.226.5.5v1.932zm0 4.868a.5.5 0 0 1-.5.5h-1.93a.5.5 0 0 1-.5-.5v-1.933a.5.5 0 0 1 .5-.5h1.93a.5.5 0 0 1 .5.5v1.934zm5.015-9.737c0 .274-.225.5-.5.5h-1.932a.502.502 0 0 1-.5-.5V17.55c0-.273.225-.5.5-.5h1.932c.275 0 .5.227.5.5v1.933zm0 4.869c0 .274-.225.5-.5.5h-1.932a.502.502 0 0 1-.5-.5V22.42c0-.274.225-.5.5-.5h1.932c.275 0 .5.226.5.5v1.932zm0 4.868a.5.5 0 0 1-.5.5h-1.932a.5.5 0 0 1-.5-.5v-1.933c0-.275.225-.5.5-.5h1.932c.275 0 .5.225.5.5v1.934zm-10.027-9.737c0 .274-.225.5-.5.5h-1.932a.502.502 0 0 1-.5-.5V17.55c0-.273.225-.5.5-.5h1.932c.275 0 .5.227.5.5v1.933zm0 4.869c0 .274-.225.5-.5.5h-1.932a.502.502 0 0 1-.5-.5V22.42c0-.274.225-.5.5-.5h1.932c.275 0 .5.226.5.5v1.932zm0 4.868a.5.5 0 0 1-.5.5h-1.932a.5.5 0 0 1-.5-.5v-1.933c0-.275.225-.5.5-.5h1.932c.275 0 .5.225.5.5v1.934z"/></svg>