<svg version="1" xmlns="http://www.w3.org/2000/svg" width="24.301" height="24.3" viewBox="0 0 24.301 24.3"><path fill="#24B574" d="M24.3 19.8a4.5 4.5 0 0 1-4.5 4.5H4.5A4.501 4.501 0 0 1 0 19.8V4.5C0 2.015 2.016 0 4.5 0h15.3a4.5 4.5 0 0 1 4.5 4.5v15.3z"/><path d="M8.72 17.845c.786-2.487 2.27-5.465 2.534-6.22.38-1.092-.295-1.578-2.42.292-.135-.275-.328-.588-.47-.89 2.423-2.636 7.414-3.23 5.714.854-1.06 2.553-1.818 4.273-2.252 5.6-.633 1.938.965 1.153 2.527-.293.215.35.28.46.496.86-3.475 3.305-7.327 3.596-6.13-.202zm6.59-11.353c-.737.63-1.833.615-2.444-.03-.613-.647-.51-1.68.23-2.31.737-.628 1.83-.614 2.444.032.61.646.51 1.678-.23 2.308z" fill="#FFF"/></svg>