<svg version="1" xmlns="http://www.w3.org/2000/svg" width="25.15" height="25.15" viewBox="0 0 25.15 25.15"><path fill="none" stroke="#24B574" stroke-width=".5" stroke-miterlimit="10" d="M24.725 20.225c0 2.484-2.016 4.5-4.5 4.5H4.924a4.502 4.502 0 0 1-4.5-4.5v-15.3c0-2.485 2.017-4.5 4.5-4.5h15.301c2.484 0 4.5 2.015 4.5 4.5v15.3z"/><path fill="#24B574" d="M9.146 18.27c.785-2.486 2.27-5.465 2.533-6.219.379-1.093-.296-1.579-2.421.291-.135-.275-.327-.588-.471-.889 2.424-2.638 7.415-3.232 5.715.853-1.061 2.552-1.818 4.273-2.252 5.601-.633 1.936.965 1.15 2.528-.295.215.35.279.461.496.861-3.475 3.305-7.326 3.596-6.128-.203zM15.735 6.917c-.738.629-1.834.615-2.445-.031-.612-.646-.509-1.679.23-2.308.736-.629 1.832-.615 2.443.03.612.647.51 1.679-.228 2.309z"/></svg>