<svg version="1" xmlns="http://www.w3.org/2000/svg" width="28.836" height="26.875" viewBox="-2.268 -1.288 28.836 26.875"><path fill="#F2F2F2" stroke="#999" stroke-width=".5" stroke-miterlimit="10" d="M26.318 23.09c0 1.243-1.035 2.247-2.31 2.247H.292c-1.272 0-2.308-1.004-2.308-2.248V1.21c0-1.24 1.035-2.248 2.31-2.248H24.01c1.273 0 2.31 1.008 2.31 2.248v21.88z"/><path fill="#666" d="M7.69 7.47c0 .274-.226.5-.5.5H5.98a.502.502 0 0 1-.5-.5V6.26c0-.275.225-.5.5-.5h1.21c.274 0 .5.225.5.5v1.21zm0 5.28c0 .276-.226.5-.5.5H5.98a.5.5 0 0 1-.5-.5v-1.204c0-.275.225-.5.5-.5h1.21c.274 0 .5.225.5.5v1.205zm0 5.29c0 .273-.226.5-.5.5H5.98a.503.503 0 0 1-.5-.5v-1.21c0-.275.225-.5.5-.5h1.21c.274 0 .5.225.5.5v1.207zM18.82 7.47c0 .274-.225.5-.5.5H9.828a.502.502 0 0 1-.5-.5V6.26c0-.275.225-.5.5-.5h8.492c.275 0 .5.225.5.5v1.21zm0 5.28a.5.5 0 0 1-.5.5H9.828a.5.5 0 0 1-.5-.5v-1.204c0-.275.225-.5.5-.5h8.492c.275 0 .5.225.5.5v1.205zm0 5.29c0 .273-.225.5-.5.5H9.828a.503.503 0 0 1-.5-.5v-1.21c0-.275.225-.5.5-.5h8.492c.275 0 .5.225.5.5v1.207z"/></svg>