<svg version="1" xmlns="http://www.w3.org/2000/svg" width="92.709" height="42.26" viewBox="0 0 92.709 42.26"><path fill="#94E0BE" d="M52.826 28.534L44.95 32.17V14.696h7.876"/><path fill="#B3B3B3" d="M32.73 26.12H15.4l3.635-7.777H32.73"/><path fill="#666" d="M35.643 26.12H18.316l3.635-7.777h13.693"/><path fill="#22B573" d="M52.826 25.35l-7.875 3.643V16.308h7.876"/><path fill="#333C45" d="M39.426 8.154v3.296h-7.813V8.154c0-.27-.13-.412-.408-.412H8.158c-.273 0-.418.144-.418.412v25.95c0 .27.147.408.42.408h23.045c.275 0 .408-.137.408-.408V26.12h-9.918l3.64-7.75h14.09v15.734c0 2.268-.808 4.195-2.405 5.78-1.607 1.577-3.547 2.376-5.814 2.376H8.158c-2.27 0-4.195-.8-5.78-2.377C.796 38.3 0 36.373 0 34.103V8.154c0-2.26.795-4.19 2.38-5.773C3.962.793 5.89 0 8.157 0h23.047c2.268 0 4.207.793 5.814 2.38 1.597 1.583 2.406 3.515 2.406 5.774zm29.447 10.16L84.195 0h8.514v42.26h-7.812V11.266L68.873 30.344 52.797 11.266v10.616l-7.846 3.64V0h8.552l15.37 18.314z"/></svg>