<svg version="1" xmlns="http://www.w3.org/2000/svg" width="17.343" height="16.532" viewBox="5.246 1.448 17.343 16.532"><path fill="#FFF" d="M5.523 14.982a9.671 9.671 0 0 0 5.275 1.555c6.338 0 9.805-5.25 9.805-9.802l-.01-.444a7.025 7.025 0 0 0 1.72-1.786 6.928 6.928 0 0 1-1.985.55 3.45 3.45 0 0 0 1.523-1.905 6.964 6.964 0 0 1-2.188.827 3.457 3.457 0 0 0-2.518-1.084 3.441 3.441 0 0 0-3.44 3.44c0 .274.024.537.085.786a9.773 9.773 0 0 1-7.097-3.595 3.437 3.437 0 0 0 1.058 4.592 3.362 3.362 0 0 1-1.552-.43v.046a3.445 3.445 0 0 0 2.758 3.374 3.52 3.52 0 0 1-.906.12 2.95 2.95 0 0 1-.646-.064 3.448 3.448 0 0 0 3.215 2.395 6.938 6.938 0 0 1-4.276 1.48c-.284 0-.558-.02-.82-.056z"/></svg>