<svg xmlns="http://www.w3.org/2000/svg" version="1" width="64.328" height="89.586" viewBox="125.505 -41.844 64.328 89.586"><path fill="none" stroke="#29AAE3" stroke-width=".7" stroke-miterlimit="10" d="M188.148 41.532c0 2.2-1.8 4-4 4H131.19c-2.2 0-4-1.8-4-4v-77.166c0-2.2 1.8-4 4-4h52.958c2.2 0 4 1.8 4 4v77.166z"/><path d="M147.496-25.42h22.13c.628 0 1.136-.398 1.136-.893 0-.49-.51-.892-1.137-.892h-22.13c-.63 0-1.14.4-1.14.892 0 .495.51.893 1.14.893zm30.462 0h3.723a.89.89 0 0 0 .893-.893.891.891 0 0 0-.89-.892h-3.724a.893.893 0 0 0 .001 1.785z" fill="#29aae3"/><path fill="none" stroke="#29AAE3" stroke-width=".7" stroke-miterlimit="10" d="M185.515 34.668c0 .55-.45 1-1 1h-53.45c-.552 0-1-.45-1-1v-63.44c0-.55.448-1 1-1h53.45c.55 0 1 .45 1 1v63.44z"/><path d="M133.363-25.42a.896.896 0 0 0 .893-.892c0-.235-.1-.465-.262-.633a.901.901 0 0 0-.63-.26.908.908 0 0 0-.632.26.891.891 0 0 0 .63 1.525zm2.85 0a.896.896 0 0 0 .63-.262.904.904 0 0 0 .26-.63.916.916 0 0 0-.26-.633c-.166-.165-.396-.26-.63-.26s-.464.095-.63.26c-.166.168-.262.397-.262.632s.098.466.264.63c.167.17.395.263.63.263zm2.853 0a.891.891 0 0 0 .889-.892.91.91 0 0 0-.262-.633.898.898 0 0 0-1.26 0 .891.891 0 0 0 .63 1.525h.003z" fill="#29aae3"/><path fill="none" stroke="#29AAE3" stroke-width=".7" stroke-miterlimit="10" d="M129.826-22.956h55.545m-55.543 53.818h55.545"/><path d="M154.1 5.812V5.05c-2.46-1.146-4.173-3.64-4.173-6.53 0-3.974 3.23-7.206 7.193-7.206 3.967 0 7.193 3.232 7.193 7.205 0 3.043-1.9 5.65-4.576 6.7v.735c3.064-1.085 5.27-4.005 5.27-7.44 0-4.353-3.54-7.896-7.885-7.896-4.348 0-7.885 3.543-7.885 7.896a7.908 7.908 0 0 0 4.865 7.292l-.003.002z" fill="#29aae3"/><path d="M163.166-1.48a5.694 5.694 0 0 0-5.686-5.694c-3.137 0-5.688 2.555-5.688 5.694 0 2.025 1.07 3.797 2.666 4.807v-.85c-1.19-.915-1.975-2.34-1.975-3.958 0-2.76 2.238-5.007 4.994-5.007 2.752 0 4.994 2.244 4.994 5.003 0 1.793-.953 3.356-2.375 4.24v.783c1.818-.953 3.07-2.836 3.07-5.024v.003z" fill="#29aae3"/><path d="M164.04 16.487a.17.17 0 0 0-.03.094l-.18 2.93c-.008.103-.09.19-.193.19h-7.146c-.07 0-.137-.05-.17-.112l-5.086-9.76c-.645-1.066.266-2.07 1.193-2.07.41 0 .822.195 1.11.668l.65 1.002c.134.207.32.3.522.3.333 0 .644-.25.644-.66v-6.93c0-.898.67-1.35 1.344-1.35s1.346.45 1.346 1.35v3.94c0 .106.11.192.213.192.02 0 .05-.006.07-.01.188-.064.47-.13.78-.13.536 0 1.173.197 1.616.964.04.064.11.104.18.104a.168.168 0 0 0 .068-.013 2.56 2.56 0 0 1 .853-.157c.5 0 1.092.177 1.53.85a.602.602 0 0 0 .472.267c.605.034 1.895.328 2.2 2.158.294 1.76-.21 3.492-1.985 6.185z" fill="#29aae3"/><circle fill="none" stroke="#29AAE3" stroke-width=".7" stroke-miterlimit="10" cx="158.199" cy="40.452" r="2.129"/><path fill="none" stroke="#29AAE3" stroke-linecap="round" stroke-miterlimit="10" d="M154.585-34.486h6.508"/></svg>