<svg xmlns="http://www.w3.org/2000/svg" version="1" width="96.325" height="86.753" viewBox="112.583 -44.048 96.325 86.753"><path fill="none" d="M151.646 24.29s.354 7.627-3.73 13.05h-4.224s.96 3.166 2.605 3.166h29.73s2.063-.97 2.28-2.95h-4.23s-4.208-6.364-3.806-13.268h-18.623z"/><path fill="none" stroke="#23b574" stroke-width=".7" stroke-miterlimit="10" d="M206.505 19.89c0 2.43-1.97 4.396-4.4 4.396h-82.72a4.4 4.4 0 0 1-4.4-4.397v-57.34c0-2.433 1.97-4.4 4.4-4.4h82.72a4.4 4.4 0 0 1 4.4 4.4v57.34z"/><path d="M124.15-31.886c.318 0 .63-.13.857-.355a1.227 1.227 0 0 0 .004-1.72 1.228 1.228 0 0 0-.857-.353c-.32 0-.635.13-.86.354a1.225 1.225 0 0 0 0 1.718c.225.226.54.354.86.354h-.003zm3.883 0c.316 0 .63-.13.857-.355.225-.23.354-.54.354-.86 0-.318-.13-.633-.355-.86a1.22 1.22 0 0 0-1.716.001c-.23.23-.355.54-.355.86s.126.633.353.858c.225.226.537.354.857.354h.003zm3.88 0c.32 0 .632-.13.856-.355.225-.23.353-.54.353-.86 0-.318-.13-.633-.355-.86a1.211 1.211 0 0 0-1.711.001c-.23.23-.358.54-.358.86s.13.633.356.858c.22.225.533.354.854.354zm10.446 0h43.887a1.215 1.215 0 1 0 .002-2.432h-43.894c-.67 0-1.21.545-1.21 1.215s.538 1.214 1.21 1.214h.002zm54.08 0h2.586a1.217 1.217 0 0 0-.001-2.432h-2.588c-.673 0-1.214.545-1.214 1.215s.54 1.214 1.213 1.214z" fill="#23b574"/><path fill="none" stroke="#000" stroke-width=".7" stroke-miterlimit="10" d="M119.48-28.53H202"/><path d="M180.058-6.11a2.661 2.661 0 0 1-2.656-2.66v-3.87c0-2.8-2.273-5.08-5.068-5.08h-1.29c-.665 0-1.204.543-1.204 1.21s.54 1.21 1.207 1.21h1.29a2.66 2.66 0 0 1 2.653 2.66v3.87c0 1.55.695 2.94 1.787 3.87a5.08 5.08 0 0 0-1.787 3.87v3.87c0 1.47-1.19 2.66-2.656 2.66h-1.29c-.665 0-1.204.542-1.204 1.21s.54 1.21 1.207 1.21h1.29c2.792 0 5.065-2.28 5.065-5.08v-3.87a2.664 2.664 0 0 1 2.658-2.66 1.21 1.21 0 0 0 0-2.42h-.002zm-33.564-2.66v-3.87a2.66 2.66 0 0 1 2.656-2.66h1.29c.665 0 1.206-.54 1.206-1.21s-.54-1.21-1.207-1.21h-1.29c-2.798 0-5.07 2.28-5.07 5.08v3.87a2.66 2.66 0 0 1-2.66 2.66c-.665 0-1.204.544-1.204 1.21s.54 1.21 1.205 1.21a2.662 2.662 0 0 1 2.66 2.66v3.87c0 2.8 2.272 5.08 5.07 5.08h1.29c.662 0 1.203-.542 1.203-1.21s-.54-1.21-1.205-1.21h-1.292a2.659 2.659 0 0 1-2.656-2.66v-3.87c0-1.55-.693-2.937-1.79-3.87a5.064 5.064 0 0 0 1.79-3.87h.002zM167.18.34a1.21 1.21 0 0 0-.853 2.065c.223.225.537.354.854.354a1.216 1.216 0 0 0 1.21-1.21A1.213 1.213 0 0 0 167.182.34zm-6.44 0a1.22 1.22 0 0 0-.852.356 1.203 1.203 0 0 0 0 1.709c.225.225.535.354.854.354s.63-.13.855-.356c.225-.225.352-.537.352-.854 0-.317-.13-.63-.354-.853a1.218 1.218 0 0 0-.855-.355zm-6.44 0a1.213 1.213 0 0 0-.851 2.065c.223.225.533.354.85.354a1.21 1.21 0 0 0 1.209-1.21c0-.317-.13-.63-.356-.853a1.228 1.228 0 0 0-.855-.356z" fill="#23b574"/><path fill="none" stroke="#23b574" stroke-width=".7" stroke-miterlimit="10" d="M151.646 24.29s.96 4.726-3.73 13.05m22.44-13.05s-.96 4.726 3.728 13.05m-30.39.215c.173 1.29 1.27 2.95 2.604 2.95h29.406c1.336 0 2.432-1.66 2.604-2.95h-34.615zM202 17.805c0 1.1-.897 2-2 2h-78.52c-1.1 0-2-.9-2-2v-53.66c0-1.1.9-2 2-2H200c1.103 0 2 .9 2 2v53.66z"/></svg>