<svg version="1" xmlns="http://www.w3.org/2000/svg" width="43.975" height="44.697" viewBox="102.568 -11.83 43.975 44.697"><path d="M144.315 3.534c.54-.064.947-.52.947-1.06v-2.53c0-.54-.408-1-.947-1.062l-1.555-.177a9.228 9.228 0 0 0-.88-2.228l.974-1.234c.336-.43.3-1.037-.082-1.42l-1.783-1.79a1.07 1.07 0 0 0-1.42-.08l-1.163.922a9.296 9.296 0 0 0-2.383-1.006l-.168-1.453a1.067 1.067 0 0 0-1.06-.95h-2.524c-.54 0-.994.404-1.06.95l-.17 1.452a9.301 9.301 0 0 0-2.317.97l-1.123-.888a1.06 1.06 0 0 0-1.42.082l-1.777 1.783a1.071 1.071 0 0 0-.082 1.42l.914 1.158a9.225 9.225 0 0 0-.896 2.21l-1.483.173c-.54.06-.947.52-.947 1.063V2.37c0 .543.408 1 .947 1.062l1.506.173c.21.786.527 1.534.934 2.235l-.98 1.24c-.335.428-.3 1.038.083 1.424l1.783 1.79c.387.377.994.415 1.42.074l1.254-.992c.715.402 1.477.71 2.273.92l.186 1.613c.06.54.52.946 1.06.946h2.522c.543 0 1-.405 1.06-.946l.196-1.675c.74-.212 1.45-.51 2.117-.897l1.3 1.03c.428.34 1.037.303 1.42-.08l1.783-1.788c.38-.386.418-.993.082-1.42l-1.037-1.31c.365-.645.65-1.328.86-2.042l1.637-.19zm-10.783-6.646a4.18 4.18 0 0 1 4.172 4.18 4.18 4.18 0 0 1-4.172 4.177 4.181 4.181 0 0 1-4.17-4.178 4.182 4.182 0 0 1 4.17-4.18zM106.575 5.45c-.41.348-.494.95-.19 1.397l.58.875a7.51 7.51 0 0 0-.884 1.744l-1.062.033a1.06 1.06 0 0 0-1.018.97l-.148 1.74c-.04.532.324 1.02.844 1.127l1.06.214c.118.654.325 1.287.61 1.89l-.775.82a1.062 1.062 0 0 0-.036 1.41L106.68 19c.343.41.94.494 1.39.198l.957-.636a7.79 7.79 0 0 0 1.79.908l.036 1.166c.018.54.434.973.97 1.02l1.735.15a1.064 1.064 0 0 0 1.123-.847l.243-1.195a7.796 7.796 0 0 0 1.787-.58l.867.813a1.06 1.06 0 0 0 1.408.04l1.33-1.128c.41-.35.496-.944.2-1.39l-.665-1.008a7.64 7.64 0 0 0 .842-1.606l1.188-.04a1.062 1.062 0 0 0 1.02-.97l.148-1.738a1.066 1.066 0 0 0-.848-1.127l-1.098-.224a7.945 7.945 0 0 0-.566-1.88l.768-.82c.37-.386.385-.996.04-1.406l-1.126-1.343a1.055 1.055 0 0 0-1.39-.2l-.878.586a7.665 7.665 0 0 0-1.873-.988l-.033-1.03a1.06 1.06 0 0 0-.97-1.022l-1.737-.146a1.053 1.053 0 0 0-1.12.846l-.21 1.014a7.645 7.645 0 0 0-1.963.637l-.732-.692a1.057 1.057 0 0 0-1.404-.036l-1.333 1.125zm6.547 10.06a3.421 3.421 0 0 1 .575-6.817 3.415 3.415 0 0 1 3.114 3.695 3.408 3.408 0 0 1-3.688 3.12zM136.108 21a6.73 6.73 0 0 0-.67-1.647l.5-.652c.37-.472.324-1.14-.107-1.56l-.85-.837a1.174 1.174 0 0 0-1.56-.072l-.588.482a7.081 7.081 0 0 0-1.77-.723l-.095-.736a1.168 1.168 0 0 0-1.18-1.024l-1.188.012a1.177 1.177 0 0 0-1.155 1.056l-.076.74a6.724 6.724 0 0 0-1.71.74l-.566-.437a1.177 1.177 0 0 0-1.56.108l-.83.852a1.17 1.17 0 0 0-.07 1.56l.472.586a7.196 7.196 0 0 0-.643 1.647l-.762.1c-.59.074-1.034.58-1.02 1.178l.014 1.193c.004.595.46 1.095 1.05 1.155l.78.08c.164.578.404 1.13.713 1.646l-.5.656c-.37.477-.32 1.14.105 1.56l.85.834c.428.42 1.094.448 1.56.07l.66-.532c.532.293 1.1.514 1.688.658l.11.854c.07.596.58 1.04 1.18 1.027l1.187-.013a1.166 1.166 0 0 0 1.152-1.055l.095-.902a6.861 6.861 0 0 0 1.56-.682l.698.54a1.17 1.17 0 0 0 1.56-.106l.833-.852a1.179 1.179 0 0 0 .068-1.563l-.56-.697c.265-.48.472-.986.616-1.516l.875-.112a1.18 1.18 0 0 0 1.023-1.185l-.014-1.19a1.172 1.172 0 0 0-1.055-1.154l-.822-.084zm-6.843-1.26a3.092 3.092 0 0 1 3.127 3.057 3.1 3.1 0 0 1-3.05 3.132 3.098 3.098 0 0 1-3.13-3.06 3.09 3.09 0 0 1 3.053-3.13zm0 0" fill="none" stroke="#000" stroke-width=".7" stroke-miterlimit="10"/></svg>