<svg version="1" xmlns="http://www.w3.org/2000/svg" width="96.167" height="89.742" viewBox="108.251 -40.063 96.167 89.742"><path fill="none" stroke="#000" stroke-width=".7" stroke-miterlimit="10" d="M186.813 43.392c0 2.2-1.8 4-4 4h-52.958c-2.2 0-4-1.8-4-4v-77.166c0-2.2 1.8-4 4-4h52.958c2.2 0 4 1.8 4 4v77.166z"/><path d="M146.16-23.56h22.13c.627 0 1.136-.398 1.136-.892 0-.492-.51-.892-1.137-.892h-22.13c-.63 0-1.138.4-1.138.892 0 .494.51.892 1.138.892zm30.463 0h3.722a.89.89 0 1 0 0-1.784h-3.722a.893.893 0 0 0 .001 1.784zm0 0"/><path fill="none" stroke="#000" stroke-width=".7" stroke-miterlimit="10" d="M184.18 36.528c0 .55-.45 1-1 1h-53.452c-.55 0-1-.45-1-1v-63.44c0-.55.45-1 1-1h53.452c.55 0 1 .45 1 1v63.44z"/><path d="M132.027-23.56a.894.894 0 0 0 .893-.892c0-.235-.1-.464-.262-.632-.166-.165-.397-.26-.63-.26s-.465.095-.632.26a.898.898 0 0 0 0 1.262.895.895 0 0 0 .63.262zm2.85 0a.893.893 0 0 0 0-1.784.901.901 0 0 0-.63.26.898.898 0 0 0 0 1.262.89.89 0 0 0 .63.262zm2.853 0a.895.895 0 0 0 .888-.892.905.905 0 0 0-.26-.632.898.898 0 0 0-1.26 0 .899.899 0 0 0 0 1.262.885.885 0 0 0 .63.262zm0 0"/><path fill="none" stroke="#000" stroke-width=".7" stroke-miterlimit="10" d="M128.49-21.096h55.545M128.49 32.722h55.545"/><path d="M152.764 7.672V6.91c-2.46-1.146-4.173-3.64-4.173-6.53 0-3.974 3.228-7.206 7.193-7.206 3.967 0 7.193 3.232 7.193 7.205 0 3.046-1.9 5.65-4.575 6.703v.735c3.064-1.085 5.268-4.005 5.268-7.44 0-4.353-3.538-7.896-7.885-7.896-4.346 0-7.883 3.543-7.883 7.897a7.906 7.906 0 0 0 4.864 7.292z"/><path d="M161.83.38c0-3.142-2.55-5.695-5.686-5.695S150.457-2.76 150.457.38c0 2.025 1.07 3.796 2.666 4.806v-.85c-1.192-.914-1.975-2.34-1.975-3.957a5.003 5.003 0 0 1 4.995-5.004c2.752 0 4.994 2.244 4.994 5.003 0 1.793-.955 3.356-2.377 4.24v.783c1.817-.953 3.07-2.836 3.07-5.024z"/><path d="M162.704 18.347a.19.19 0 0 0-.03.094l-.18 2.927c-.008.102-.09.19-.194.19h-7.146a.2.2 0 0 1-.17-.112l-5.087-9.76c-.646-1.066.264-2.07 1.192-2.07.41 0 .824.195 1.11.668l.65 1.002a.61.61 0 0 0 .524.3c.335 0 .645-.25.645-.66V3.998c0-.9.67-1.35 1.344-1.35s1.345.45 1.345 1.35v3.938c0 .108.11.194.214.194.018 0 .05-.005.07-.01.187-.063.47-.13.78-.13.536 0 1.172.198 1.616.965.04.064.11.103.18.103a.195.195 0 0 0 .068-.012 2.52 2.52 0 0 1 .852-.158c.5 0 1.09.177 1.528.85.104.158.28.255.473.267.605.034 1.894.328 2.2 2.158.295 1.76-.21 3.492-1.986 6.184z"/><circle fill="none" stroke="#000" stroke-width=".7" stroke-miterlimit="10" cx="156.864" cy="42.312" r="2.129"/><path fill="none" stroke="#000" stroke-linecap="round" stroke-miterlimit="10" d="M153.25-32.626h6.508"/></svg>