<svg version="1" xmlns="http://www.w3.org/2000/svg" width="96.167" height="89.742" viewBox="108.251 -40.063 96.167 89.742"><g opacity=".6"><path fill="none" stroke="#000" stroke-width=".7" stroke-miterlimit="10" d="M186.813 43.392c0 2.2-1.8 4-4 4h-52.958c-2.2 0-4-1.8-4-4v-77.166c0-2.2 1.8-4 4-4h52.958c2.2 0 4 1.8 4 4v77.166z"/><path d="M146.16-23.56h22.129c.628 0 1.137-.398 1.137-.892 0-.492-.509-.892-1.137-.892H146.16c-.629 0-1.138.399-1.138.892 0 .494.509.892 1.138.892zm-.942 0M176.623-23.56h3.722a.89.89 0 1 0 0-1.784h-3.722a.892.892 0 0 0 0 1.784zm0 0"/><path fill="none" stroke="#000" stroke-width=".7" stroke-miterlimit="10" d="M184.18 36.528c0 .55-.45 1-1 1h-53.452c-.55 0-1-.45-1-1v-63.441c0-.55.45-1 1-1h53.452c.55 0 1 .45 1 1v63.441z"/><path d="M132.027-23.56a.899.899 0 0 0 .893-.892.918.918 0 0 0-.262-.632c-.166-.165-.397-.26-.631-.26s-.464.095-.631.26a.898.898 0 0 0 0 1.262.896.896 0 0 0 .631.262zm0 0M134.877-23.56a.897.897 0 0 0 .631-.262.9.9 0 0 0 0-1.262.897.897 0 0 0-1.26 0 .894.894 0 0 0 .629 1.524zm0 0M137.729-23.56a.893.893 0 0 0 0-1.784.898.898 0 0 0-.631.26.89.89 0 0 0 .631 1.524zm0 0"/><path fill="none" stroke="#000" stroke-width=".7" stroke-miterlimit="10" d="M128.49-21.096h55.545M128.49 32.722h55.545"/><path d="M152.764 7.672V6.91c-2.459-1.146-4.173-3.64-4.173-6.531 0-3.973 3.227-7.205 7.192-7.205 3.967 0 7.193 3.232 7.193 7.205 0 3.047-1.901 5.652-4.575 6.704v.735c3.063-1.085 5.267-4.005 5.267-7.439 0-4.354-3.538-7.897-7.885-7.897-4.346 0-7.883 3.543-7.883 7.897a7.908 7.908 0 0 0 4.864 7.293z"/><path d="M161.829.379c0-3.141-2.55-5.694-5.685-5.694-3.136 0-5.687 2.554-5.687 5.694 0 2.026 1.069 3.797 2.666 4.807v-.849c-1.192-.915-1.975-2.341-1.975-3.958a5.003 5.003 0 0 1 4.995-5.003c2.752 0 4.994 2.244 4.994 5.003 0 1.794-.955 3.357-2.377 4.24v.784c1.817-.953 3.069-2.836 3.069-5.024z"/><path d="M162.704 18.347a.206.206 0 0 0-.031.094l-.18 2.926a.198.198 0 0 1-.193.189h-7.146a.203.203 0 0 1-.171-.111l-5.086-9.76c-.646-1.066.264-2.07 1.192-2.07.412 0 .825.195 1.111.668l.65 1.002a.61.61 0 0 0 .524.299c.335 0 .645-.25.645-.658V3.997c0-.9.671-1.35 1.345-1.35s1.345.449 1.345 1.35v3.938c0 .108.111.194.215.194a.28.28 0 0 0 .069-.01c.188-.062.472-.128.782-.128.535 0 1.171.197 1.615.964a.217.217 0 0 0 .18.103.195.195 0 0 0 .068-.012 2.52 2.52 0 0 1 .852-.158c.499 0 1.09.177 1.528.849a.607.607 0 0 0 .473.268c.604.034 1.893.328 2.2 2.158.294 1.76-.212 3.492-1.987 6.184z"/><circle fill="none" stroke="#000" stroke-width=".7" stroke-miterlimit="10" cx="156.864" cy="42.312" r="2.129"/><path fill="none" stroke="#000" stroke-linecap="round" stroke-miterlimit="10" d="M153.251-32.626h6.507"/></g></svg>