<svg version="1" xmlns="http://www.w3.org/2000/svg" width="43.975" height="44.697" viewBox="102.568 -11.83 43.975 44.697"><g fill="none" stroke="#000" stroke-width=".7" stroke-miterlimit="10"><path d="M107.65 6.79c.086 3.118 1.542 4.864 2.98 6.49.097 1.665.214 2.772-.412 5.317 2.88-1.01 3.354-1.39 4.938-2.426 1.67.36 2.467.565 4.362.698-.123 1.184-.077 2.127.184 3.367a24.459 24.459 0 0 1-3.893-.518c-2.286 1.494-7.37 3.078-10.957 3.822 1.275-2.69 2.668-6.378 2.52-8.92a12.286 12.286 0 0 1-3.047-7.74c-.22-8.034 7.467-14.118 16.244-14.358 8.705-.238 16.743 5.347 16.996 13.396a15.887 15.887 0 0 0-3.373-.432c-.534-5.555-6.445-9.83-13.53-9.64C113.33-3.948 107.49.962 107.65 6.79z"/><path d="M142.824 22.773a8.018 8.018 0 0 0 1.718-5.166c-.144-5.258-5.384-8.963-11.128-8.806-5.713.156-10.777 4.117-10.632 9.402.127 4.662 4.62 8.94 11.046 8.766a15.375 15.375 0 0 0 3.668-.56c1.546.894 4.925 1.743 7.294 2.112-.928-1.715-1.968-4.075-1.966-5.747z"/><path d="M128.81 20.178a2.053 2.053 0 0 1-2.102-1.992 2.049 2.049 0 0 1 1.987-2.107 2.048 2.048 0 0 1 2.102 1.995 2.054 2.054 0 0 1-1.988 2.103zm4.985-.138a2.055 2.055 0 0 1-2.102-1.99 2.054 2.054 0 0 1 1.99-2.11 2.052 2.052 0 0 1 2.102 1.996 2.047 2.047 0 0 1-1.99 2.103zm4.988-.136a2.05 2.05 0 0 1-.113-4.1 2.051 2.051 0 0 1 .113 4.1z"/></g></svg>