<svg version="1" xmlns="http://www.w3.org/2000/svg" width="43.975" height="44.697" viewBox="102.568 -11.83 43.975 44.697"><g fill="none" stroke="#000" stroke-width=".7" stroke-miterlimit="10"><path d="M144.315 3.534c.539-.064.947-.521.947-1.06V-.055c0-.541-.408-1-.947-1.063l-1.555-.177a9.206 9.206 0 0 0-.881-2.228l.975-1.234a1.072 1.072 0 0 0-.082-1.421l-1.783-1.788a1.072 1.072 0 0 0-1.42-.082l-1.162.923a9.296 9.296 0 0 0-2.383-1.006l-.168-1.452a1.067 1.067 0 0 0-1.061-.95h-2.523a1.07 1.07 0 0 0-1.061.95l-.168 1.452a9.298 9.298 0 0 0-2.318.972l-1.123-.889a1.062 1.062 0 0 0-1.42.082l-1.777 1.783a1.07 1.07 0 0 0-.082 1.419l.914 1.159a9.283 9.283 0 0 0-.896 2.21l-1.484.173a1.07 1.07 0 0 0-.947 1.063v2.527c0 .543.408 1 .947 1.062l1.506.173c.211.786.527 1.534.934 2.235l-.979 1.24a1.077 1.077 0 0 0 .082 1.424l1.783 1.789c.387.378.994.416 1.42.075l1.254-.992a9.571 9.571 0 0 0 2.273.919l.186 1.614c.061.541.52.946 1.059.946h2.523c.543 0 1-.405 1.061-.946l.195-1.675a9.31 9.31 0 0 0 2.117-.897l1.299 1.029c.428.34 1.037.304 1.42-.079l1.783-1.788c.379-.386.418-.993.082-1.421l-1.037-1.309c.365-.645.65-1.328.859-2.042l1.638-.191zm-10.783-6.646a4.18 4.18 0 0 1 4.172 4.179 4.18 4.18 0 0 1-4.172 4.178 4.181 4.181 0 0 1-4.17-4.178 4.18 4.18 0 0 1 4.17-4.179zm0 0M106.575 5.451c-.41.347-.494.948-.191 1.396l.58.875a7.545 7.545 0 0 0-.883 1.744l-1.063.033a1.062 1.062 0 0 0-1.018.971l-.148 1.74a1.07 1.07 0 0 0 .844 1.127l1.059.214c.119.653.326 1.286.611 1.889l-.775.821a1.059 1.059 0 0 0-.037 1.408L106.679 19c.344.41.941.494 1.391.198l.957-.636a7.777 7.777 0 0 0 1.791.908l.035 1.166c.018.54.434.973.969 1.021l1.736.15a1.065 1.065 0 0 0 1.123-.848l.242-1.194a7.75 7.75 0 0 0 1.787-.581l.867.814c.393.367.996.387 1.408.039l1.33-1.127c.41-.349.496-.944.199-1.391l-.664-1.007a7.665 7.665 0 0 0 .842-1.606l1.188-.039a1.063 1.063 0 0 0 1.02-.971l.148-1.738a1.067 1.067 0 0 0-.848-1.127l-1.098-.225a8.017 8.017 0 0 0-.566-1.879l.768-.821c.369-.386.385-.996.039-1.406l-1.125-1.343a1.055 1.055 0 0 0-1.391-.199l-.877.585a7.665 7.665 0 0 0-1.873-.988l-.033-1.031a1.06 1.06 0 0 0-.969-1.021l-1.738-.146a1.055 1.055 0 0 0-1.121.846l-.209 1.014a7.645 7.645 0 0 0-1.963.637l-.732-.692a1.057 1.057 0 0 0-1.404-.036l-1.333 1.125zm6.547 10.058a3.42 3.42 0 0 1-3.115-3.696 3.418 3.418 0 0 1 3.689-3.12 3.415 3.415 0 0 1 3.115 3.695 3.411 3.411 0 0 1-3.689 3.121zm0 0M136.108 20.999a6.738 6.738 0 0 0-.67-1.646l.5-.652a1.168 1.168 0 0 0-.107-1.561l-.852-.837a1.171 1.171 0 0 0-1.559-.072l-.588.481a7.11 7.11 0 0 0-1.771-.723l-.094-.735a1.167 1.167 0 0 0-1.18-1.024l-1.188.012a1.177 1.177 0 0 0-1.154 1.056l-.076.739a6.772 6.772 0 0 0-1.709.741l-.566-.437a1.178 1.178 0 0 0-1.561.107l-.83.852a1.172 1.172 0 0 0-.07 1.561l.473.585a7.168 7.168 0 0 0-.643 1.647l-.762.1a1.161 1.161 0 0 0-1.021 1.178l.014 1.192a1.172 1.172 0 0 0 1.051 1.155l.779.08c.164.578.404 1.131.713 1.646l-.5.656c-.369.477-.32 1.14.105 1.559l.85.835a1.168 1.168 0 0 0 1.561.069l.658-.531a6.91 6.91 0 0 0 1.689.658l.109.854a1.165 1.165 0 0 0 1.18 1.027l1.188-.014a1.165 1.165 0 0 0 1.152-1.055l.096-.902a6.879 6.879 0 0 0 1.559-.682l.699.539a1.171 1.171 0 0 0 1.561-.105l.832-.852a1.179 1.179 0 0 0 .068-1.563l-.561-.697c.266-.479.473-.986.617-1.516l.875-.112a1.178 1.178 0 0 0 1.023-1.185l-.014-1.189a1.173 1.173 0 0 0-1.055-1.155l-.821-.084zm-6.843-1.26a3.093 3.093 0 0 1 3.127 3.058 3.1 3.1 0 0 1-3.051 3.132 3.097 3.097 0 0 1-3.129-3.06 3.091 3.091 0 0 1 3.053-3.13zm0 0"/></g></svg>