<svg version="1" xmlns="http://www.w3.org/2000/svg" width="43.975" height="44.697" viewBox="102.568 -11.83 43.975 44.697"><g fill="none" stroke="#000" stroke-width=".7" stroke-miterlimit="10"><path d="M107.651 6.789c.085 3.119 1.541 4.865 2.978 6.492.098 1.664.215 2.771-.411 5.316 2.881-1.01 3.354-1.391 4.938-2.426 1.671.359 2.467.564 4.362.697-.123 1.184-.077 2.127.184 3.367a24.344 24.344 0 0 1-3.893-.518c-2.285 1.494-7.37 3.078-10.956 3.822 1.275-2.688 2.668-6.377 2.52-8.918a12.286 12.286 0 0 1-3.047-7.742c-.219-8.033 7.467-14.117 16.244-14.357 8.705-.238 16.743 5.347 16.996 13.396a15.879 15.879 0 0 0-3.373-.432c-.534-5.555-6.445-9.831-13.53-9.639-7.332.204-13.173 5.114-13.012 10.942z"/><path d="M142.824 22.773a8.025 8.025 0 0 0 1.718-5.166c-.144-5.258-5.384-8.963-11.128-8.806-5.713.155-10.777 4.116-10.632 9.401.127 4.662 4.62 8.941 11.046 8.766a15.422 15.422 0 0 0 3.668-.559c1.546.893 4.925 1.742 7.294 2.111-.928-1.715-1.968-4.075-1.966-5.747z"/><path d="M128.809 20.178a2.053 2.053 0 0 1-2.101-1.992 2.048 2.048 0 0 1 1.987-2.107 2.048 2.048 0 0 1 2.102 1.996 2.054 2.054 0 0 1-1.988 2.103zM133.795 20.039a2.054 2.054 0 0 1-2.102-1.99 2.054 2.054 0 0 1 1.991-2.109 2.053 2.053 0 0 1 2.101 1.996 2.048 2.048 0 0 1-1.99 2.103zM138.783 19.904a2.05 2.05 0 0 1-.113-4.099 2.05 2.05 0 1 1 .113 4.099z"/></g></svg>