<svg version="1" xmlns="http://www.w3.org/2000/svg" width="43.975" height="44.697" viewBox="102.568 -11.83 43.975 44.697"><g fill="none" stroke="#000" stroke-width=".7" stroke-miterlimit="10"><path d="M141.964 27.002v-9.607c0-.502-.408-.91-.91-.91h-9.587c-.506 0-.912.408-.912.91v9.607c0 .502.406.908.912.908h9.587c.502 0 .91-.406.91-.908zm-9.59-.912M118.555 22.197c0-3.148-2.56-5.713-5.705-5.713s-5.702 2.564-5.702 5.713c0 3.152 2.558 5.713 5.702 5.713 3.145 0 5.705-2.56 5.705-5.713zm-9.59 0M118.555-1.16c0-3.15-2.56-5.713-5.705-5.713s-5.702 2.563-5.702 5.713 2.558 5.714 5.702 5.714c3.145 0 5.705-2.562 5.705-5.714zm-9.59 0M119.47 22.197c0 .504.405.912.908.912h5.663l-1.008 1.01c-.176.175-.264.41-.264.642s.088.465.264.643c.356.357.932.357 1.287 0l2.56-2.563c.354-.355.354-.932 0-1.287l-2.56-2.563c-.356-.355-.932-.355-1.286 0s-.354.932 0 1.287l1.007 1.007h-5.662c-.503 0-.91.41-.91.91zm0 0M119.892-.994c-.178.18-.267.41-.267.646 0 .23.09.465.267.644l2.558 2.562c.354.357.932.357 1.288 0 .354-.354.354-.93 0-1.288l-.998-1c6.715.2 12.12 5.937 12.12 12.968 0 .5.405.91.906.91.504 0 .91-.41.91-.91 0-8.042-6.23-14.602-13.952-14.792l1.014-1.014c.354-.355.354-.932 0-1.288-.356-.356-.934-.356-1.288 0l-2.558 2.562zm0 0M116.074 12.855c.356-.354.356-.932 0-1.287-.352-.357-.93-.357-1.285 0l-1.01 1.008V6.49c0-.504-.404-.91-.904-.91-.504 0-.912.406-.912.91v6.086l-1.007-1.008c-.354-.357-.93-.357-1.284 0-.18.178-.268.41-.268.645 0 .232.088.465.268.643l2.56 2.564c.353.355.93.355 1.284 0l2.557-2.565zm0 0"/></g></svg>
