<svg version="1" xmlns="http://www.w3.org/2000/svg" width="96.167" height="89.742" viewBox="108.251 -40.063 96.167 89.742"><path fill="none" stroke="#000" stroke-width=".7" stroke-miterlimit="10" d="M202.094 33.477c0 2.43-1.97 4.4-4.398 4.4h-82.72c-2.43 0-4.4-1.97-4.4-4.4V-23.86c0-2.43 1.97-4.4 4.4-4.4h82.72c2.43 0 4.398 1.97 4.398 4.4v57.337z"/><path d="M119.74-18.297c.318 0 .63-.13.86-.356.224-.226.353-.54.353-.858 0-.322-.13-.634-.354-.86-.23-.227-.542-.355-.86-.355-.32 0-.633.13-.86.355-.224.227-.353.54-.353.86 0 .318.13.632.354.857.227.226.54.356.86.356zm0 0M123.62-18.297c.32 0 .632-.13.858-.356.227-.226.357-.54.357-.858 0-.32-.13-.634-.357-.86s-.54-.355-.857-.355c-.32 0-.632.13-.856.355-.227.227-.355.54-.355.86 0 .318.128.632.354.857.224.226.537.356.857.356zm0 0M127.502-18.297c.318 0 .633-.13.857-.356.226-.226.354-.54.354-.858 0-.32-.13-.634-.355-.86-.226-.227-.54-.355-.858-.355s-.63.13-.855.355c-.227.227-.357.54-.357.86 0 .318.13.632.357.857.224.226.537.356.855.356zm0 0M137.95-18.297h43.89c.672 0 1.215-.545 1.215-1.215s-.543-1.215-1.215-1.215h-43.89c-.673 0-1.214.544-1.214 1.215 0 .67.54 1.215 1.213 1.215zm0 0M192.03-18.297h2.587c.67 0 1.213-.545 1.213-1.215s-.543-1.215-1.213-1.215h-2.588c-.673 0-1.214.544-1.214 1.215 0 .67.54 1.215 1.213 1.215zm0 0"/><path fill="none" stroke="#000" stroke-width=".7" stroke-miterlimit="10" d="M115.068-14.942h82.524M197.592 31.394c0 1.1-.9 2-2 2H117.07c-1.1 0-2-.9-2-2v-53.66c0-1.1.9-2 2-2h78.522c1.1 0 2 .9 2 2v53.66z"/><path d="M158.266-9.404v4.945c.64-.292 1.336-.447 2.05-.447.665 0 1.312.133 1.92.394.59.252 1.116.61 1.567 1.068.928.943 1.428 2.19 1.41 3.518-.018 1.28-.53 2.49-1.44 3.4-.913.912-2.118 1.424-3.4 1.44h-.06c-.71 0-1.408-.155-2.047-.448l-.002 4.904h5.863c-.145.247-.354.557-.594.91-.467.68-.814 1.47-.8 2.36.022 2.015 1.663 3.66 3.673 3.687h.053c2.058 0 3.726-1.672 3.726-3.733 0-.873-.342-1.645-.8-2.31-.222-.326-.452-.667-.597-.915h5.472c.865 0 1.566-.703 1.566-1.568V-7.836c0-.867-.7-1.568-1.566-1.568h-15.996zm0 0"/><path d="M143.264 8.225c-.29-.64-.447-1.338-.447-2.05 0-1.31.512-2.544 1.436-3.47.926-.93 2.156-1.44 3.465-1.44h.072c1.277.02 2.484.53 3.395 1.444s1.42 2.12 1.436 3.402c.01.733-.145 1.455-.444 2.112h4.92l-.002-5.886c.21.12.592.378.945.622.653.452 1.417.775 2.276.775h.045c2.01-.026 3.653-1.668 3.68-3.68.01-.69-.167-1.338-.483-1.896-.64-1.13-1.852-1.894-3.24-1.894-.86 0-1.605.35-2.277.776-.414.262-.736.502-.943.62v-7.05H139.92c-.862 0-1.563.703-1.563 1.57V8.22h4.907zm0 0"/><path d="M139.914 28.173h17.174V20.97s-.63.546-.83.69c-.646.538-1.477.862-2.38.862-2.08 0-3.76-1.7-3.73-3.788.03-2.013 1.67-3.655 3.678-3.68.018-.002.035-.002.05-.002.905 0 1.735.324 2.382.862.2.143.83.69.83.69V9.398h-7.04c.058-.11.372-.59.628-.95.467-.662.78-1.45.77-2.323-.025-2.013-1.666-3.657-3.674-3.686h-.055c-.963 0-1.842.367-2.502.97-.752.683-1.225 1.67-1.225 2.765 0 .856.32 1.62.77 2.274.29.416.504.737.62.938 0 .004.003.008.005.01h-7.037v17.207c0 .865.7 1.568 1.566 1.568zm0 0"/></svg>
