<svg version="1" xmlns="http://www.w3.org/2000/svg" width="96.167" height="89.742" viewBox="108.251 -40.063 96.167 89.742"><path fill="none" d="M147.235 29.77s.355 7.628-3.727 13.052h-4.226s.96 3.164 2.605 3.164h29.73s2.064-.97 2.28-2.95h-4.227s-4.21-6.364-3.808-13.267h-18.627z"/><path fill="none" stroke="#000" stroke-width=".7" stroke-miterlimit="10" d="M202.095 25.37c0 2.43-1.97 4.398-4.4 4.398h-82.72a4.4 4.4 0 0 1-4.4-4.398v-57.338c0-2.432 1.97-4.4 4.4-4.4h82.72a4.4 4.4 0 0 1 4.4 4.4V25.37z"/><path d="M119.74-26.405c.318 0 .63-.13.857-.355a1.222 1.222 0 0 0 .001-1.718 1.22 1.22 0 0 0-.857-.355c-.32 0-.634.13-.86.355s-.353.54-.353.86c0 .32.13.632.354.858s.54.355.86.355zm3.882 0c.317 0 .63-.13.857-.355a1.23 1.23 0 0 0 .354-.86c0-.317-.13-.632-.355-.858a1.226 1.226 0 0 0-.858-.355c-.32 0-.633.13-.858.355a1.222 1.222 0 0 0-.001 1.718c.225.226.538.355.858.355zm3.881 0a1.216 1.216 0 0 0 1.211-1.215c0-.317-.13-.632-.356-.858a1.209 1.209 0 0 0-1.711 0c-.227.227-.357.54-.357.86a1.218 1.218 0 0 0 1.213 1.213zm10.445 0h43.89a1.215 1.215 0 1 0 .001-2.43h-43.892c-.67 0-1.212.545-1.212 1.215s.54 1.215 1.212 1.215zm54.082 0h2.586a1.215 1.215 0 0 0 0-2.43h-2.587c-.673 0-1.214.545-1.214 1.215s.54 1.215 1.213 1.215zm0 0"/><path fill="none" stroke="#000" stroke-width=".7" stroke-miterlimit="10" d="M115.07-23.05h82.522"/><path d="M175.648-.628a2.662 2.662 0 0 1-2.657-2.66v-3.87c0-2.802-2.273-5.08-5.067-5.08h-1.29c-.666 0-1.206.542-1.206 1.21s.54 1.21 1.207 1.21h1.29a2.66 2.66 0 0 1 2.654 2.66v3.87c0 1.55.696 2.938 1.788 3.87a5.079 5.079 0 0 0-1.788 3.87v3.87c0 1.468-1.19 2.66-2.655 2.66h-1.29c-.666 0-1.206.542-1.206 1.21s.54 1.21 1.207 1.21h1.29c2.793 0 5.067-2.28 5.067-5.08v-3.87a2.663 2.663 0 0 1 2.658-2.66 1.21 1.21 0 0 0 0-2.42zm-33.564-2.66v-3.87a2.66 2.66 0 0 1 2.656-2.66h1.29c.664 0 1.205-.542 1.205-1.21s-.54-1.21-1.206-1.21h-1.29c-2.796 0-5.07 2.278-5.07 5.08v3.87a2.66 2.66 0 0 1-2.658 2.66c-.666 0-1.206.543-1.206 1.21 0 .667.54 1.21 1.206 1.21a2.661 2.661 0 0 1 2.658 2.66v3.87c0 2.8 2.274 5.08 5.07 5.08h1.29c.664 0 1.205-.542 1.205-1.21s-.54-1.21-1.206-1.21h-1.29a2.66 2.66 0 0 1-2.656-2.66v-3.87a5.07 5.07 0 0 0-1.79-3.87 5.07 5.07 0 0 0 1.79-3.87zm20.686 9.111a1.21 1.21 0 0 0-.853 2.064 1.21 1.21 0 0 0 2.061-.854 1.21 1.21 0 0 0-1.208-1.209zm-6.44 0a1.21 1.21 0 0 0-.853 2.064c.226.225.536.354.854.354.318 0 .63-.128.855-.353a1.213 1.213 0 0 0 0-1.709 1.214 1.214 0 0 0-.854-.355zm-6.44 0c-.316 0-.627.13-.85.355a1.203 1.203 0 0 0-.001 1.709 1.208 1.208 0 0 0 1.705.001c.226-.225.354-.537.354-.855a1.215 1.215 0 0 0-1.209-1.209zm0 0"/><path fill="none" stroke="#000" stroke-width=".7" stroke-miterlimit="10" d="M147.235 29.77s.96 4.726-3.727 13.052m22.438-13.052s-.96 4.726 3.727 13.052m-30.39.214c.174 1.29 1.27 2.95 2.605 2.95h29.406c1.337 0 2.432-1.66 2.604-2.95h-34.615zM197.592 23.286c0 1.1-.9 2-2 2H117.07c-1.1 0-2-.9-2-2v-53.66c0-1.1.9-2 2-2h78.522c1.1 0 2 .9 2 2v53.66z"/></svg>