<svg version="1" xmlns="http://www.w3.org/2000/svg" width="96.167" height="89.742" viewBox="108.251 -40.063 96.167 89.742"><g opacity=".6"><path fill="none" d="M147.235 29.769s.355 7.629-3.727 13.053h-4.226s.96 3.164 2.605 3.164h29.731s2.063-.969 2.278-2.949h-4.226s-4.21-6.365-3.808-13.268h-18.627z"/><path fill="none" stroke="#000" stroke-width=".7" stroke-miterlimit="10" d="M202.095 25.37a4.399 4.399 0 0 1-4.4 4.398h-82.72c-2.43 0-4.4-1.969-4.4-4.398v-57.338a4.4 4.4 0 0 1 4.4-4.4h82.72a4.4 4.4 0 0 1 4.4 4.4V25.37z"/><path d="M119.74-26.405c.318 0 .631-.129.857-.355a1.223 1.223 0 0 0 0-1.718 1.219 1.219 0 0 0-.857-.355c-.32 0-.634.129-.859.355s-.354.541-.354.859c0 .32.129.633.354.859s.539.355.859.355zm0 0M123.622-26.405c.317 0 .63-.129.857-.355.226-.227.355-.539.355-.859 0-.318-.13-.633-.355-.859a1.222 1.222 0 0 0-.857-.355c-.32 0-.633.129-.858.355a1.223 1.223 0 0 0-.355.859c0 .32.129.633.355.859.225.226.538.355.858.355zm0 0M127.503-26.405a1.211 1.211 0 0 0 1.211-1.214c0-.318-.129-.633-.356-.859a1.209 1.209 0 0 0-1.711 0 1.225 1.225 0 0 0-.357.859c0 .32.131.633.357.859.223.226.536.355.856.355zm0 0M137.948-26.405h43.891a1.214 1.214 0 1 0 0-2.43h-43.891c-.671 0-1.212.545-1.212 1.215s.541 1.215 1.212 1.215zm0 0M192.029-26.405h2.587a1.215 1.215 0 0 0 0-2.43h-2.587c-.672 0-1.213.545-1.213 1.215s.541 1.215 1.213 1.215zm0 0"/><path fill="none" stroke="#000" stroke-width=".7" stroke-miterlimit="10" d="M115.069-23.05h82.523"/><path d="M175.648-.628a2.662 2.662 0 0 1-2.657-2.66v-3.869c0-2.803-2.274-5.08-5.068-5.08h-1.289a1.21 1.21 0 1 0 0 2.42h1.289a2.659 2.659 0 0 1 2.655 2.66v3.869c0 1.549.696 2.938 1.788 3.869a5.084 5.084 0 0 0-1.788 3.871v3.871a2.66 2.66 0 0 1-2.655 2.66h-1.289c-.667 0-1.207.541-1.207 1.209s.54 1.209 1.207 1.209h1.289c2.794 0 5.068-2.279 5.068-5.078V4.452a2.662 2.662 0 0 1 2.657-2.66 1.21 1.21 0 0 0 0-2.42zm0 0M142.084-3.288v-3.869a2.66 2.66 0 0 1 2.656-2.66h1.289a1.21 1.21 0 0 0 0-2.42h-1.289a5.08 5.08 0 0 0-5.07 5.08v3.869a2.661 2.661 0 0 1-2.658 2.66c-.666 0-1.206.543-1.206 1.209 0 .668.54 1.211 1.206 1.211a2.661 2.661 0 0 1 2.658 2.66v3.871a5.08 5.08 0 0 0 5.07 5.078h1.289a1.208 1.208 0 0 0 0-2.418h-1.289a2.66 2.66 0 0 1-2.656-2.66V4.452a5.074 5.074 0 0 0-1.79-3.871 5.069 5.069 0 0 0 1.79-3.869zm0 0M162.77 5.823a1.212 1.212 0 0 0-1.207 1.209c0 .319.129.631.354.855a1.209 1.209 0 1 0 .853-2.064zm0 0M156.331 5.823a1.212 1.212 0 0 0-1.208 1.209 1.213 1.213 0 0 0 1.208 1.209c.317 0 .629-.129.854-.354a1.211 1.211 0 0 0-.854-2.064zm0 0M149.891 5.823a1.208 1.208 0 1 0 .854 2.064 1.212 1.212 0 0 0-.854-2.064zm0 0"/><path fill="none" stroke="#000" stroke-width=".7" stroke-miterlimit="10" d="M147.235 29.769s.959 4.727-3.727 13.053M165.946 29.769s-.96 4.727 3.727 13.053M139.283 43.036c.174 1.291 1.269 2.949 2.605 2.949h29.406c1.337 0 2.432-1.658 2.604-2.949h-34.615z"/><g><path fill="none" stroke="#000" stroke-width=".7" stroke-miterlimit="10" d="M197.592 23.286c0 1.1-.9 2-2 2H117.07c-1.1 0-2-.9-2-2v-53.66c0-1.1.9-2 2-2h78.522c1.1 0 2 .9 2 2v53.66z"/></g></g></svg>