<svg version="1" xmlns="http://www.w3.org/2000/svg" width="43.975" height="44.697" viewBox="102.568 -11.83 43.975 44.697"><path fill="none" stroke="#000" stroke-width=".7" stroke-miterlimit="10" d="M130.035-1.855c-4.862-4.927-12.82-4.974-17.738-.104-4.915 4.873-4.96 12.84-.104 17.767 4.33 4.385 11.11 4.89 16.014 1.512.104.487.337.956.712 1.335l7.076 7.174a2.643 2.643 0 0 0 3.745.022 2.645 2.645 0 0 0 .022-3.752l-7.074-7.178a2.675 2.675 0 0 0-1.326-.723c3.427-4.88 3.002-11.673-1.327-16.055zm-2.34 15.5c-3.668 3.636-9.61 3.603-13.237-.073-3.63-3.68-3.596-9.627.076-13.266 3.668-3.634 9.607-3.6 13.238.074 3.626 3.682 3.59 9.626-.078 13.266zm0 0"/></svg>