<svg version="1" xmlns="http://www.w3.org/2000/svg" width="43.975" height="44.697" viewBox="102.568 -11.83 43.975 44.697"><path fill="none" stroke="#000" stroke-width=".7" stroke-miterlimit="10" d="M130.035-1.855c-4.862-4.927-12.821-4.974-17.738-.104-4.915 4.872-4.96 12.839-.104 17.766 4.331 4.385 11.109 4.889 16.014 1.512.104.488.337.957.712 1.336l7.077 7.174a2.642 2.642 0 0 0 3.745.023 2.646 2.646 0 0 0 .021-3.752l-7.074-7.178a2.683 2.683 0 0 0-1.326-.723c3.427-4.878 3.002-11.672-1.327-16.054zm-2.341 15.501c-3.667 3.635-9.609 3.602-13.236-.074-3.63-3.681-3.596-9.627.076-13.266 3.668-3.634 9.607-3.6 13.238.074 3.626 3.682 3.59 9.626-.078 13.266zm0 0"/></svg>