<svg version="1" xmlns="http://www.w3.org/2000/svg" width="43.975" height="44.697" viewBox="102.568 -11.83 43.975 44.697"><path fill="none" stroke="#000" stroke-width=".7" stroke-miterlimit="10" d="M133.739-2.625h-18.366l-6.563 18.402v7.885h31.49v-7.885l-6.561-18.402zm-14.228 6.998l1.7 1.775c-.999 1.299-.71 2.747.231 3.733 1.369 1.426 3.836 1.664 5.54.551 1.8-1.176 1.95-3.344.592-4.764-.583-.608-1.444-1.082-2.566-1.276l-.265 1.955-3.234-3.38 4.053-2.663-.256 1.965c1.758.248 3.239 1.059 4.281 2.146 2.338 2.443 1.898 5.867-.961 7.734-2.822 1.844-6.965 1.441-9.233-.928-1.847-1.93-2.017-4.758.118-6.848zm18.167 16.66h-26.244V17.09h26.244v3.943zm-3.939-1.97a.654.654 0 1 1 1.309-.003.654.654 0 0 1-1.309.003z"/></svg>