<svg xmlns="http://www.w3.org/2000/svg" version="1" width="95.692" height="69.357" viewBox="110.226 -31.129 95.692 69.357"><path fill="none" stroke="#ef3588" stroke-width=".7" stroke-miterlimit="10" d="M203.832 32.22a4.4 4.4 0 0 1-4.398 4.4h-82.72a4.4 4.4 0 0 1-4.4-4.4v-57.34a4.4 4.4 0 0 1 4.4-4.4h82.72c2.43 0 4.398 1.97 4.398 4.4v57.34z"/><path d="M121.477-19.556c.317 0 .633-.13.858-.356.225-.226.354-.54.354-.858 0-.322-.133-.634-.356-.86a1.222 1.222 0 0 0-.856-.355c-.32 0-.636.13-.86.355-.223.225-.354.54-.354.86 0 .32.13.632.354.857.225.226.54.356.86.356h-.003zm3.883 0c.317 0 .63-.13.856-.356.226-.226.354-.54.354-.858 0-.318-.13-.634-.355-.86s-.54-.355-.857-.355c-.32 0-.634.13-.857.355a1.22 1.22 0 0 0 .002 1.717c.225.226.538.356.858.356h.002zm3.88 0a1.209 1.209 0 0 0 1.209-1.214c0-.318-.13-.634-.356-.86a1.208 1.208 0 0 0-1.708 0c-.227.227-.36.54-.36.86a1.22 1.22 0 0 0 1.215 1.214zm10.448 0h43.89a1.215 1.215 0 1 0-.001-2.432h-43.89c-.672 0-1.213.544-1.213 1.215 0 .67.54 1.214 1.214 1.214zm54.08 0h2.586c.67 0 1.213-.544 1.213-1.215 0-.673-.543-1.217-1.213-1.217h-2.588a1.215 1.215 0 0 0-.001 2.429h.002z" fill="#ef3588"/><path fill="none" stroke="#ef3588" stroke-width=".7" stroke-miterlimit="10" d="M116.807-16.2h82.52m.002 46.335c0 1.1-.9 2-2 2h-78.523c-1.1 0-2-.9-2-2v-53.658c0-1.1.9-2 2-2h78.52c1.102 0 2 .9 2 2v53.658z"/><path d="M153.633 15.623V3.603h11.997V9.27c0 3.084-4.498 1.845-4.498 1.845s1.14 4.507-1.98 4.507h-5.52zm12.815-5.746v-7.09h-13.633V16.44h6.946c2.16 0 6.69-4.93 6.69-6.563zm-6.815 1.102h-3.407v-.685h3.407v.683zm3.41-2.73h-6.816v.68h6.815v-.68zm0-2.05h-6.816v.68h6.815V6.2zm1.362-5.275h-13.46v13.468h-.855V.053h14.315v.873z" fill="#ef3588"/><path fill="none" stroke="#ef3588" stroke-width=".7" stroke-miterlimit="10" d="M134.66 8.628h-8.417c-1.81 0-3.275 1.47-3.275 3.28s1.467 3.28 3.275 3.28h8.418a3.28 3.28 0 0 0 .002-6.56z"/><path d="M133.727 10.22a1.689 1.689 0 0 0-.001 3.375 1.687 1.687 0 0 0-.003-3.374h.002zM134.66.194h-8.417c-1.81 0-3.275 1.468-3.275 3.28s1.467 3.28 3.275 3.28h8.418a3.28 3.28 0 0 0 .002-6.56zm-7.483 4.982c-.94 0-1.696-.762-1.696-1.7a1.697 1.697 0 1 1 3.395-.002 1.7 1.7 0 0 1-1.697 1.702zm64.787-3.57a2.02 2.02 0 1 0-2.66 1.908c.112 2.898-1.36 3.215-3.367 3.638-1.15.244-2.453.524-3.402 1.41v-5.06a2.017 2.017 0 0 0 1.348-1.9 2.02 2.02 0 1 0-2.696 1.899v8.345a2.018 2.018 0 0 0 .675 3.923 2.02 2.02 0 0 0 .69-3.919c.185-2.645 1.733-2.973 3.664-3.38 2.047-.433 4.563-.974 4.435-4.98a2.016 2.016 0 0 0 1.316-1.89v.005zm-11.53 0c0-.79.64-1.43 1.426-1.43a1.428 1.428 0 0 1 0 2.857c-.786 0-1.427-.64-1.426-1.428zm9.51 1.49a1.489 1.489 0 0 1-1.487-1.49 1.487 1.487 0 1 1 2.974 0c0 .82-.666 1.49-1.485 1.49z" fill="#ef3588"/><path fill="none" stroke="#ef3588" stroke-width=".7" stroke-miterlimit="10" d="M144.315-15.884v48.02m27.506-48.02v48.02"/></svg>