<svg version="1" xmlns="http://www.w3.org/2000/svg" width="43.975" height="44.697" viewBox="102.568 -11.83 43.975 44.697"><g fill="none" stroke="#000" stroke-width=".7" stroke-miterlimit="10"><path d="M134.457-6.437l-19.774.016c-3.9.003-7.068 3.165-7.068 7.067L107.6 20.42a7.044 7.044 0 0 0 7.055 7.055l19.772-.016a7.075 7.075 0 0 0 7.065-7.07l.02-19.772a7.046 7.046 0 0 0-7.055-7.055zm-21.465 24.714h7.71m-3.855-3.853v7.71M114.12.01l5.452 5.452m0-5.452l-5.45 5.452m14.37 13.898h7.71m-7.71-2.165h7.71m-7.71-14.079h7.71"/><circle cx="132.347" cy=".866" r=".854"/><circle cx="132.347" cy="5.235" r=".854"/><path d="M124.556-6.437v33.902m16.951-16.951h-33.902"/></g></svg>