<svg version="1" xmlns="http://www.w3.org/2000/svg" width="96.167" height="89.742" viewBox="108.251 -40.063 96.167 89.742"><g opacity=".6"><path fill="none" stroke="#000" stroke-width=".7" stroke-miterlimit="10" d="M202.094 33.478a4.399 4.399 0 0 1-4.4 4.399h-82.718c-2.432 0-4.4-1.97-4.4-4.399V-23.86a4.399 4.399 0 0 1 4.4-4.399h82.718c2.432 0 4.4 1.97 4.4 4.399v57.338z"/><path d="M119.739-18.297c.318 0 .633-.13.859-.356.225-.225.354-.539.354-.858 0-.32-.129-.633-.354-.859a1.227 1.227 0 0 0-.859-.354c-.32 0-.633.129-.859.354a1.222 1.222 0 0 0 0 1.717c.226.226.539.356.859.356zm0 0M123.622-18.297c.316 0 .629-.13.857-.356.225-.225.355-.539.355-.858s-.131-.633-.355-.859a1.217 1.217 0 0 0-1.714 0 1.218 1.218 0 0 0 0 1.717c.224.226.537.356.857.356zm0 0M127.503-18.297a1.214 1.214 0 0 0 0-2.427 1.217 1.217 0 0 0-1.214 1.213 1.22 1.22 0 0 0 1.214 1.214zm0 0M137.948-18.297h43.89a1.215 1.215 0 1 0 0-2.429h-43.89c-.672 0-1.213.543-1.213 1.214 0 .67.541 1.215 1.213 1.215zm0 0M192.029-18.297h2.588c.67 0 1.211-.545 1.211-1.215 0-.671-.541-1.214-1.211-1.214h-2.588c-.672 0-1.213.543-1.213 1.214 0 .67.541 1.215 1.213 1.215zm0 0"/><path fill="none" stroke="#000" stroke-width=".7" stroke-miterlimit="10" d="M115.069-14.942h82.521M197.59 31.394c0 1.1-.9 2-2 2h-78.521c-1.1 0-2-.9-2-2v-53.658c0-1.1.9-2 2-2h78.521c1.1 0 2 .9 2 2v53.658z"/><path d="M155.575-9.017c17.679 7.799 14.761 20.516 14.761 20.516s5.393 4.216 4.408 8.972c0 0-2.416-2.746-5.496-2.177-2.977.548-4.154 3.957-10.165 5.064-13.35 2.462-21.717-7.535-21.717-7.535 13.479 5.719 20.658-1.415 20.658-1.415-6.004-2.155-20.293-15.083-20.293-15.083 11.617 6.705 16.363 8.15 16.363 8.15-2.988-1.662-12.174-10.784-12.174-10.784 6.895 4.819 19.944 10.893 19.944 10.893 1.628-9.674-6.289-16.601-6.289-16.601"/></g></svg>