<svg version="1" xmlns="http://www.w3.org/2000/svg" width="96.167" height="89.742" viewBox="108.251 -40.063 96.167 89.742"><path fill="none" stroke="#000" stroke-width=".7" stroke-miterlimit="10" d="M202.094 33.478a4.4 4.4 0 0 1-4.4 4.4h-82.718c-2.432 0-4.4-1.97-4.4-4.4V-23.86a4.4 4.4 0 0 1 4.4-4.4h82.718c2.432 0 4.4 1.97 4.4 4.4v57.338z"/><path d="M119.74-18.297c.317 0 .632-.13.858-.356.225-.225.354-.54.354-.858 0-.32-.13-.634-.354-.86a1.226 1.226 0 0 0-.86-.354c-.32 0-.632.13-.858.354a1.222 1.222 0 0 0 0 1.717c.226.226.54.356.86.356zm3.882 0c.316 0 .63-.13.857-.356.224-.225.354-.54.354-.858s-.13-.634-.355-.86a1.233 1.233 0 0 0-.858-.354c-.32 0-.633.13-.857.354a1.218 1.218 0 0 0 0 1.717c.224.226.537.356.857.356zm3.881 0a1.214 1.214 0 0 0 0-2.428c-.32 0-.633.13-.857.354a1.215 1.215 0 0 0 .856 2.073zm10.445 0h43.89a1.215 1.215 0 1 0 0-2.429h-43.89c-.672 0-1.213.543-1.213 1.214 0 .67.54 1.215 1.213 1.215zm54.082 0h2.587c.67 0 1.21-.545 1.21-1.215s-.54-1.214-1.21-1.214h-2.588c-.673 0-1.214.543-1.214 1.214 0 .67.54 1.215 1.213 1.215zm0 0"/><path fill="none" stroke="#000" stroke-width=".7" stroke-miterlimit="10" d="M115.07-14.942h82.52m0 46.336c0 1.1-.9 2-2 2h-78.52c-1.1 0-2-.9-2-2v-53.658c0-1.1.9-2 2-2h78.52c1.1 0 2 .9 2 2v53.658z"/><path d="M155.575-9.017c17.68 7.8 14.76 20.516 14.76 20.516s5.394 4.215 4.41 8.97c0 0-2.417-2.745-5.497-2.176-2.977.548-4.154 3.957-10.165 5.064-13.35 2.462-21.717-7.535-21.717-7.535 13.48 5.72 20.658-1.415 20.658-1.415C152.02 12.253 137.73-.675 137.73-.675c11.618 6.705 16.364 8.15 16.364 8.15C151.106 5.813 141.92-3.31 141.92-3.31c6.895 4.82 19.944 10.894 19.944 10.894 1.628-9.674-6.29-16.6-6.29-16.6"/></svg>