<svg version="1" xmlns="http://www.w3.org/2000/svg" width="43.975" height="44.697" viewBox="102.568 -11.83 43.975 44.697"><path fill="none" stroke="#000" stroke-width=".7" stroke-miterlimit="10" d="M118.98 26.3c-6.49-2.302-11.15-8.487-11.15-15.78 0-7.293 4.66-13.48 11.15-15.782V5.075c0 1.048.274 1.958.78 2.627 1.15 1.502 3.412 1.504 4.974-.063.112-.116.223-.237.334-.36.58-.613.898-.95 1.852-.95 1.313 0 3.215 1.49 3.215 4.188 0 2.698-1.902 4.19-3.215 4.19-.953 0-1.272-.338-1.852-.95a9.532 9.532 0 0 0-.334-.355c-.787-.793-1.73-1.23-2.662-1.23-1.486 0-3.093 1.187-3.093 3.79V26.3zm5.576-32.535c-.953 0-1.882.1-2.788.25v11.06c0 .61.162.87.213.936.213.063.48-.043.777-.343l.283-.295c.68-.73 1.713-1.832 3.88-1.832 2.9 0 5.996 2.804 5.996 6.98 0 4.174-3.097 6.98-5.997 6.98-2.167 0-3.2-1.1-3.88-1.83l-.278-.29c-.3-.303-.56-.412-.69-.412-.105 0-.304.336-.304.998v11.06c.906.153 1.835.25 2.788.25 9.238 0 16.726-7.5 16.726-16.755 0-9.254-7.488-16.755-16.726-16.755z"/></svg>