<svg version="1" xmlns="http://www.w3.org/2000/svg" width="43.975" height="44.697" viewBox="102.568 -11.83 43.975 44.697"><g fill="none" stroke="#000" stroke-width=".7" stroke-miterlimit="10"><path d="M134.457-6.437l-19.774.016c-3.9.004-7.068 3.166-7.068 7.068L107.6 20.42a7.045 7.045 0 0 0 7.055 7.055l19.772-.016a7.074 7.074 0 0 0 7.065-7.07l.02-19.771a7.046 7.046 0 0 0-7.055-7.055zM112.992 18.277h7.709M116.847 14.424v7.709M114.121.011l5.451 5.451M119.572.011l-5.451 5.451M128.492 19.361h7.709M128.492 17.195h7.709M128.492 3.116h7.709"/><circle cx="132.347" cy=".866" r=".854"/><circle cx="132.347" cy="5.235" r=".854"/><path d="M124.556-6.437v33.902M141.507 10.514h-33.902"/></g></svg>