<svg version="1" xmlns="http://www.w3.org/2000/svg" width="43.975" height="44.697" viewBox="102.568 -11.83 43.975 44.697"><path fill="none" stroke="#000" stroke-width=".7" stroke-miterlimit="10" d="M118.979 26.301c-6.489-2.303-11.148-8.488-11.148-15.782 0-7.292 4.659-13.478 11.148-15.781V5.075c0 1.048.275 1.958.781 2.627 1.15 1.502 3.412 1.504 4.974-.063.112-.115.223-.236.334-.359.579-.613.898-.951 1.852-.951 1.313 0 3.215 1.492 3.215 4.189 0 2.698-1.902 4.19-3.215 4.19-.953 0-1.272-.338-1.852-.951-.111-.121-.222-.242-.334-.354-.787-.793-1.729-1.229-2.662-1.229-1.486 0-3.093 1.186-3.093 3.789v10.338zm5.577-32.536c-.953 0-1.882.099-2.788.251v11.06c0 .608.162.87.213.935.212.062.478-.044.776-.344l.283-.295c.68-.73 1.713-1.832 3.879-1.832 2.9 0 5.997 2.804 5.997 6.98 0 4.174-3.097 6.981-5.997 6.981-2.166 0-3.199-1.102-3.879-1.832l-.278-.289c-.3-.303-.559-.412-.69-.412-.105 0-.304.336-.304.998v11.059c.906.154 1.835.25 2.788.25 9.238 0 16.726-7.5 16.726-16.754-.001-9.255-7.488-16.756-16.726-16.756z"/></svg>