<svg xmlns="http://www.w3.org/2000/svg" viewBox="0 0 117.57 35.57"><path d="M41.09 0s-3.56 0-3.56 3.56V32s0 3.56 3.56 3.56H114s3.56 0 3.56-3.56V3.56S117.57 0 114 0H41.09z" fill="#25408f"/><path d="M110.84 23.85a.18.18 0 0 0 .22-.16v-.92c0-.16-.22-.16-.22-.16H44.33a.2.2 0 0 0-.23.16l-.1.92c0 .16.21.16.21.16" fill="#7578b0"/><path d="M63 18.53l1.87-6.11a.16.16 0 0 0-.16-.22H52.27l1.08-3.52a.16.16 0 0 0-.15-.22h-6a.32.32 0 0 0-.29.22l-1.64 5.27a.16.16 0 0 0 .16.22h1.45a.28.28 0 0 0 .11 0h11.74l-1.34 4.33a.16.16 0 0 0 .15.22h5.17a.32.32 0 0 0 .29-.19M82.92 12.23h-4.35a.32.32 0 0 0-.29.22l-1 3.1-5.11-3.07a1.8 1.8 0 0 0-.43-.19.2.2 0 0 0-.14-.06h-4.8a.31.31 0 0 0-.29.22l-1.88 6.08a.16.16 0 0 0 .15.22h4.83a.32.32 0 0 0 .29-.22l1-3.37 5.6 3.37a1.28 1.28 0 0 0 .59.22h5.27c.22 0-.15-.22-.15-.22L80 17.17h1.4a.32.32 0 0 0 .3-.17l1.38-4.5a.15.15 0 0 0-.15-.22M111.06 13.71v-1.29a.22.22 0 0 0-.22-.22h-15a.23.23 0 0 0-.23.22l-.06 1.29a.21.21 0 0 0 .22.22h7.77v4.54a.22.22 0 0 0 .22.22h5a.22.22 0 0 0 .22-.22v-4.54h1.93a.22.22 0 0 0 .22-.22M110.84 21.33a.22.22 0 0 0 .22-.22v-1.28a.22.22 0 0 0-.22-.22H44.33a.23.23 0 0 0-.23.22l-.1 1.28a.21.21 0 0 0 .21.22M93.81 18.47v-6.05a.22.22 0 0 0-.22-.22h-6.72a.22.22 0 0 0-.23.22v1.29a.21.21 0 0 0 .22.22h1.08v3h-3.29a.22.22 0 0 0-.23.22v1.29a.21.21 0 0 0 .21.22h9a.19.19 0 0 0 .18-.09.33.33 0 0 0 0-.05" fill="#fff"/><path d="M3.56 0S0 0 0 3.56V32s0 3.56 3.56 3.56H32s3.56 0 3.56-3.56V3.56S35.57 0 32 0H3.56z" fill="#ed1c24"/><path d="M27.81 19.41c-5.22 11.71-16.42 5.93-19.09 3.35M31 17a2.36 2.36 0 0 1-2.57-2M4.25 22.29a2.36 2.36 0 0 0 1.53-2.89" fill="none" stroke="#fff" stroke-linecap="round" stroke-width="2"/><path d="M68.16 25.61h-.91v1.57a1.05 1.05 0 0 1-1.17 1.21 2 2 0 0 1-.45 0 1.21 1.21 0 0 0 .4-.14 1.28 1.28 0 0 0 .41-.44 1.5 1.5 0 0 0 .11-.65v-1.55h-.84v1.56c0 .62-.14.95-.42 1a1.19 1.19 0 0 1-.29-.91v-1.65h-.9v1.7a1.66 1.66 0 0 0 .59 1.34 2 2 0 0 0 1.37.47 2.17 2.17 0 0 0 1.4-.46 1.73 1.73 0 0 0 .66-1.43v-1.62zM69.82 25.61h-1.39v.79h.5v2.67h.89v-3.46M71.74 25.61H70.3v.8h.55v1.86h-.74v.8h1.63v-3.46M75.51 29c-.18-.27-.48-.7-.92-1.31a.05.05 0 0 1 0-.06 1.81 1.81 0 0 0 .59-.71 2 2 0 0 0 .15-.83v-.48h-.93v.7a1.32 1.32 0 0 1-.2.88q-1.12-1.5-1.2-1.58h-1v.06l.88 1.16v.06a1.64 1.64 0 0 0-.69.75 2.72 2.72 0 0 0-.15 1v.42h.89v-.5a1.49 1.49 0 0 1 .33-1.22l1.28 1.72h1V29zM78.38 25.61h-1.4v.79h.5v1h.9v-1.79M81.53 28.28h-.47a1.08 1.08 0 0 0-.38 0 1.16 1.16 0 0 0 .26-.16 1.07 1.07 0 0 0 .31-.79v-1.72h-2.61v.79h1.71v1.27a.66.66 0 0 1-.13.49.69.69 0 0 1-.45.12h-1.16v.79h2.91v-.79zM85.25 29q-.26-.4-.92-1.31v-.06a1.81 1.81 0 0 0 .59-.71 2.06 2.06 0 0 0 .15-.83v-.48h-.93v.7a1.31 1.31 0 0 1-.21.88l-1.19-1.58h-1v.06l.88 1.16v.06a1.65 1.65 0 0 0-.68.75 2.74 2.74 0 0 0-.15 1v.42h.89v-.5a1.49 1.49 0 0 1 .32-1.21c.57.75 1 1.32 1.28 1.72h1V29zM89.47 25.61h-.9v1.57a1.05 1.05 0 0 1-1.17 1.21 2 2 0 0 1-.45 0 1.2 1.2 0 0 0 .4-.14 1.25 1.25 0 0 0 .41-.44 1.52 1.52 0 0 0 .12-.65v-1.55H87v1.56c0 .62-.14.95-.42 1a1.2 1.2 0 0 1-.28-.92v-1.64h-.88v1.7a1.66 1.66 0 0 0 .58 1.34 2 2 0 0 0 1.37.47 2.17 2.17 0 0 0 1.41-.46 1.73 1.73 0 0 0 .66-1.43v-1.62zM93.18 25.61h-1.12a1.14 1.14 0 0 0-.71.2 1.31 1.31 0 0 0-.42.66h-.07a5.34 5.34 0 0 0-.19-.86h-.93v.12a7.77 7.77 0 0 1 .33 1.27 2.55 2.55 0 0 1 0 .42 4.16 4.16 0 0 1-.07.53l-.19 1.14h.89l.3-1.76a1.48 1.48 0 0 1 .25-.72.76.76 0 0 1 .61-.21h.43v1.87h-.86v.79h1.75v-3.45z" fill="#fff"/></svg>