<svg version="1" xmlns="http://www.w3.org/2000/svg" width="96.167" height="89.742" viewBox="108.251 -40.063 96.167 89.742"><path fill="none" stroke="#000" stroke-width=".7" stroke-miterlimit="10" d="M202.094 33.478a4.4 4.4 0 0 1-4.398 4.4h-82.72a4.4 4.4 0 0 1-4.4-4.4V-23.86a4.4 4.4 0 0 1 4.4-4.4h82.72c2.43 0 4.398 1.97 4.398 4.4v57.338z"/><path d="M119.74-18.297c.317 0 .632-.13.858-.356.225-.226.354-.54.354-.858 0-.322-.13-.634-.354-.86a1.22 1.22 0 0 0-.857-.355c-.32 0-.634.13-.858.355s-.354.54-.354.86.13.632.354.857c.224.226.54.356.86.356zm3.882 0c.318 0 .63-.13.857-.356.226-.226.354-.54.354-.858s-.13-.634-.355-.86-.54-.355-.858-.355c-.32 0-.633.13-.857.355-.227.227-.355.54-.355.86s.13.632.355.857c.224.226.537.356.857.356zm3.881 0a1.21 1.21 0 0 0 1.21-1.214c0-.318-.13-.634-.355-.86a1.207 1.207 0 0 0-1.71 0c-.227.227-.36.54-.36.86a1.22 1.22 0 0 0 1.215 1.213zm10.447 0h43.89a1.214 1.214 0 1 0 0-2.43h-43.89c-.672 0-1.213.544-1.213 1.215s.54 1.215 1.213 1.215zm54.08 0h2.587a1.214 1.214 0 0 0 0-2.43h-2.588a1.215 1.215 0 0 0-.001 2.43zm0 0"/><path fill="none" stroke="#000" stroke-width=".7" stroke-miterlimit="10" d="M115.07-14.94h82.522m0 46.334c0 1.1-.9 2-2 2H117.07c-1.1 0-2-.9-2-2v-53.658c0-1.1.9-2 2-2h78.522c1.1 0 2 .9 2 2v53.658z"/><path d="M151.896 16.882V4.862h11.997v5.667c0 3.084-4.498 1.845-4.498 1.845s1.14 4.507-1.98 4.507h-5.52zm12.815-5.746v-7.09h-13.633V17.7h6.946c2.157 0 6.688-4.93 6.688-6.564zm-6.815 1.102h-3.407v-.683h3.407v.683zm3.408-2.73h-6.815v.682h6.815v-.683zm0-2.05h-6.815v.683h6.815V7.46zm1.363-5.273h-13.46v13.468h-.855V1.313h14.316v.872z"/><path fill="none" stroke="#000" stroke-width=".7" stroke-miterlimit="10" d="M132.923 9.887h-8.418a3.278 3.278 0 0 0-3.275 3.28c0 1.81 1.467 3.28 3.275 3.28h8.418a3.28 3.28 0 0 0 0-6.56z"/><path d="M131.99 11.48a1.688 1.688 0 0 0-.001 3.374c.93 0 1.683-.756 1.683-1.688 0-.93-.754-1.686-1.684-1.686zm.933-10.028h-8.418a3.276 3.276 0 0 0-3.275 3.28 3.278 3.278 0 0 0 3.275 3.28h8.418a3.28 3.28 0 0 0 0-6.56zm-7.483 4.982c-.94 0-1.697-.762-1.697-1.7a1.697 1.697 0 0 1 3.394-.002 1.7 1.7 0 0 1-1.697 1.702zm64.787-3.571a2.021 2.021 0 1 0-4.04 0c0 .893.58 1.64 1.38 1.91.113 2.898-1.36 3.215-3.367 3.638-1.15.244-2.453.524-3.402 1.41V4.762a2.018 2.018 0 0 0 1.348-1.9 2.021 2.021 0 1 0-2.695 1.9v8.345a2.016 2.016 0 0 0-1.345 1.9 2.021 2.021 0 1 0 2.71-1.897c.183-2.647 1.733-2.975 3.663-3.382 2.047-.433 4.564-.974 4.434-4.98a2.018 2.018 0 0 0 1.315-1.89zm-11.53 0c0-.788.64-1.43 1.426-1.43a1.43 1.43 0 0 1-.001 2.858c-.785 0-1.426-.64-1.426-1.427zm9.51 1.49c-.822 0-1.488-.667-1.488-1.49a1.488 1.488 0 1 1 2.975 0c0 .82-.668 1.49-1.488 1.49z"/><path fill="none" stroke="#000" stroke-width=".7" stroke-miterlimit="10" d="M142.577-14.625v48.02m27.507-48.02v48.02"/></svg>