<svg version="1" xmlns="http://www.w3.org/2000/svg" width="96.167" height="89.742" viewBox="108.251 -40.063 96.167 89.742"><g opacity=".6"><path fill="none" stroke="#000" stroke-width=".7" stroke-miterlimit="10" d="M202.094 33.478c0 2.43-1.969 4.4-4.398 4.4h-82.72a4.4 4.4 0 0 1-4.4-4.4V-23.86a4.4 4.4 0 0 1 4.4-4.4h82.72a4.399 4.399 0 0 1 4.398 4.4v57.338z"/><path d="M119.741-18.297c.316 0 .631-.13.857-.356.225-.226.354-.539.354-.858 0-.321-.129-.633-.354-.859a1.222 1.222 0 0 0-.857-.355c-.32 0-.635.129-.859.355s-.354.54-.354.859.129.633.354.858c.224.226.539.356.859.356zm0 0M123.622-18.297a1.218 1.218 0 0 0 .857-2.073 1.214 1.214 0 1 0-.857 2.073zm0 0M127.503-18.297a1.21 1.21 0 0 0 1.21-1.214c0-.319-.129-.633-.355-.859a1.207 1.207 0 0 0-1.71 0c-.227.227-.359.54-.359.859a1.224 1.224 0 0 0 1.214 1.214zm0 0M137.95-18.297h43.89a1.214 1.214 0 1 0 0-2.43h-43.89c-.672 0-1.213.544-1.213 1.215s.541 1.215 1.213 1.215zm0 0M192.029-18.297h2.588a1.214 1.214 0 0 0 0-2.43h-2.588a1.214 1.214 0 0 0 0 2.43zm0 0"/><path fill="none" stroke="#000" stroke-width=".7" stroke-miterlimit="10" d="M115.069-14.941h82.523M197.592 31.394c0 1.1-.9 2-2 2H117.07c-1.1 0-2-.9-2-2v-53.658c0-1.1.9-2 2-2h78.522c1.1 0 2 .9 2 2v53.658z"/><path d="M151.896 16.882V4.863h11.997v5.666c0 3.085-4.498 1.846-4.498 1.846s1.139 4.507-1.979 4.507h-5.52zm12.815-5.746V4.045h-13.634V17.7h6.946c2.157 0 6.688-4.931 6.688-6.564zm-6.816 1.102h-3.407v-.683h3.407v.683zm3.408-2.731h-6.815v.683h6.815v-.683zm0-2.049h-6.815v.683h6.815v-.683zm1.363-5.273h-13.46v13.468h-.855V1.313h14.315v.872z"/><path fill="none" stroke="#000" stroke-width=".7" stroke-miterlimit="10" d="M132.923 9.887h-8.418a3.277 3.277 0 0 0-3.275 3.279 3.278 3.278 0 0 0 3.275 3.28h8.418a3.28 3.28 0 0 0 0-6.559z"/><path d="M131.989 11.48a1.688 1.688 0 0 0 0 3.374 1.686 1.686 0 0 0 0-3.374zM132.923 1.452h-8.418a3.277 3.277 0 0 0-3.275 3.28 3.277 3.277 0 0 0 3.275 3.279h8.418a3.28 3.28 0 1 0 0-6.559zm-7.483 4.982a1.698 1.698 0 0 1-1.697-1.701 1.698 1.698 0 1 1 3.394 0 1.698 1.698 0 0 1-1.697 1.701zM190.227 2.863a2.022 2.022 0 0 0-2.02-2.025 2.022 2.022 0 0 0-2.021 2.025c0 .893.58 1.641 1.381 1.91.113 2.898-1.361 3.215-3.367 3.638-1.15.243-2.453.523-3.402 1.408V4.763a2.018 2.018 0 0 0-.673-3.924c-1.115 0-2.02.906-2.02 2.025 0 .879.563 1.621 1.346 1.899v8.346a2.017 2.017 0 0 0-1.346 1.9 2.022 2.022 0 1 0 4.041 0 2.02 2.02 0 0 0-1.33-1.895c.182-2.647 1.732-2.975 3.662-3.382 2.047-.433 4.564-.974 4.434-4.979a2.02 2.02 0 0 0 1.315-1.89zm-11.53 0c0-.788.641-1.429 1.426-1.429s1.426.641 1.426 1.429c0 .786-.641 1.428-1.426 1.428s-1.426-.642-1.426-1.428zm9.51 1.491a1.49 1.49 0 0 1 0-2.981 1.492 1.492 0 0 1 0 2.981z"/><path fill="none" stroke="#000" stroke-width=".7" stroke-miterlimit="10" d="M142.577-14.625v48.019M170.084-14.625v48.019"/></g></svg>