<svg version="1" xmlns="http://www.w3.org/2000/svg" width="43.975" height="44.697" viewBox="102.568 -11.83 43.975 44.697"><path fill="none" stroke="#000" stroke-width=".7" stroke-miterlimit="10" d="M125.813 23.402c-.914.092-1.79.14-2.547.14-4.438 0-10.412-1.304-10.412-3.403v-2.657c2.752 1.748 6.723 2.318 10.412 2.318.44 0 .885-.01 1.33-.026a8.18 8.18 0 0 1 .168-2.63c-.53.034-1.037.052-1.498.052-4.438 0-10.412-1.307-10.412-3.404v-3.08c2.752 1.746 6.723 2.318 10.412 2.318 1.328 0 2.69-.078 4.018-.256a8.395 8.395 0 0 1 8.975-1.602V.57c0-4.38-7.757-5.68-12.993-5.68-5.492 0-13.014 1.302-13.014 5.68v19.897c0 4.377 8.074 5.682 13.014 5.682 1.406 0 3.068-.114 4.727-.368a8.525 8.525 0 0 1-2.18-2.38zm-2.547-25.91c4.73 0 10.393 1.185 10.393 3.077 0 2.058-6.638 3.075-10.394 3.075-4.438 0-10.412-1.18-10.412-3.076 0-2.064 6.257-3.077 10.412-3.077zm-10.412 6.44c2.752 1.748 6.723 2.318 10.412 2.318 3.68 0 7.64-.572 10.393-2.318V7.02c0 2.285-6.673 3.404-10.394 3.404-4.455 0-10.412-1.31-10.412-3.404V3.932zm20.154 9.19a5.858 5.858 0 0 0-5.852 5.862c0 3.236 2.623 5.86 5.852 5.86s5.852-2.624 5.852-5.86a5.858 5.858 0 0 0-5.852-5.86zm-.735 8.532l-2.39-2.316.956-.986 1.417 1.367 3.158-3.18.977.97-4.12 4.144z"/></svg>