<svg version="1" xmlns="http://www.w3.org/2000/svg" width="43.975" height="44.697" viewBox="102.568 -11.83 43.975 44.697"><path fill="none" stroke="#000" stroke-width=".7" stroke-miterlimit="10" d="M125.813 23.402c-.914.092-1.789.141-2.547.141-4.438 0-10.412-1.305-10.412-3.404v-2.656c2.752 1.748 6.723 2.318 10.412 2.318.441 0 .885-.01 1.33-.027a8.173 8.173 0 0 1 .168-2.629c-.531.033-1.037.051-1.498.051-4.438 0-10.412-1.307-10.412-3.404v-3.08c2.752 1.746 6.723 2.318 10.412 2.318 1.328 0 2.689-.078 4.018-.256a8.397 8.397 0 0 1 8.975-1.602V.569c0-4.379-7.756-5.68-12.992-5.68-5.492 0-13.014 1.303-13.014 5.68v19.898c0 4.377 8.074 5.682 13.014 5.682 1.406 0 3.068-.113 4.727-.367a8.513 8.513 0 0 1-2.181-2.38zm-2.547-25.909c4.73 0 10.393 1.184 10.393 3.076 0 2.059-6.637 3.076-10.393 3.076-4.438 0-10.412-1.18-10.412-3.076 0-2.063 6.257-3.076 10.412-3.076zm-10.412 6.439c2.752 1.748 6.723 2.318 10.412 2.318 3.68 0 7.641-.572 10.393-2.318V7.02c0 2.285-6.672 3.404-10.393 3.404-4.455 0-10.412-1.311-10.412-3.404V3.932zm20.154 9.191a5.858 5.858 0 0 0-5.852 5.861c0 3.236 2.623 5.861 5.852 5.861s5.852-2.625 5.852-5.861a5.859 5.859 0 0 0-5.852-5.861zm-.735 8.531l-2.389-2.316.955-.986 1.418 1.367 3.158-3.178.977.969-4.119 4.144z"/></svg>