<svg version="1" xmlns="http://www.w3.org/2000/svg" width="43.975" height="44.697" viewBox="102.568 -11.83 43.975 44.697"><path fill="none" stroke="#000" stroke-width=".7" stroke-miterlimit="10" d="M124.556-2.943c6.631 0 11.312 5.381 10.688 13.039 3.352-.088 8.514 1.445 8.514 7.154 0 3.711-3.018 6.73-6.723 6.73h-24.957c-3.706 0-6.723-3.02-6.723-6.73 0-5.379 4.761-7.371 8.513-7.154-.32-8.109 4.238-13.039 10.688-13.039zm12.478 17.308h-24.957c-1.593 0-2.88 1.293-2.88 2.885s1.287 2.885 2.88 2.885h24.957c1.592 0 2.879-1.293 2.879-2.885s-1.287-2.885-2.879-2.885zm0 3.846h-6.718v-1.922h6.718a.961.961 0 0 1 0 1.922z"/></svg>