<svg version="1" xmlns="http://www.w3.org/2000/svg" width="43.975" height="44.697" viewBox="102.568 -11.83 43.975 44.697"><path fill="none" stroke="#000" stroke-width=".7" stroke-miterlimit="10" d="M133.74-2.625h-18.367l-6.563 18.402v7.885h31.49v-7.885l-6.56-18.402zm-14.23 6.998l1.7 1.775c-.998 1.3-.71 2.747.232 3.733 1.37 1.427 3.836 1.665 5.54.552 1.8-1.176 1.95-3.344.592-4.764-.583-.608-1.444-1.082-2.566-1.276l-.265 1.955-3.234-3.38L125.56.304l-.256 1.965c1.758.247 3.24 1.058 4.28 2.145 2.34 2.443 1.9 5.867-.96 7.734-2.822 1.843-6.965 1.44-9.233-.93-1.847-1.93-2.017-4.757.118-6.847zm18.168 16.66h-26.244V17.09h26.244v3.943zm-3.94-1.97c0-.365.294-.656.66-.656.358 0 .65.29.65.656 0 .36-.292.654-.65.654-.366 0-.66-.293-.66-.654z"/></svg>
