<svg version="1" xmlns="http://www.w3.org/2000/svg" width="96.167" height="89.742" viewBox="108.251 -40.063 96.167 89.742"><path fill="none" d="M147.235 29.77s.355 7.628-3.727 13.052h-4.226s.96 3.164 2.605 3.164h29.73s2.064-.97 2.28-2.95h-4.227s-4.21-6.364-3.808-13.267h-18.627z"/><path fill="none" stroke="#000" stroke-width=".7" stroke-miterlimit="10" d="M202.095 25.37c0 2.43-1.97 4.398-4.4 4.398h-82.72c-2.43 0-4.4-1.97-4.4-4.398v-57.338c0-2.432 1.97-4.4 4.4-4.4h82.72c2.43 0 4.4 1.97 4.4 4.4V25.37z"/><path d="M119.74-26.405c.318 0 .63-.13.857-.355.226-.227.354-.54.354-.86s-.128-.632-.353-.858c-.227-.227-.54-.355-.857-.355-.32 0-.634.13-.86.355s-.353.54-.353.86c0 .32.13.632.354.858s.54.355.86.355zm0 0M123.622-26.405c.317 0 .63-.13.857-.355.225-.227.354-.54.354-.86 0-.317-.13-.632-.355-.858-.23-.227-.54-.355-.858-.355-.32 0-.633.13-.858.355-.227.227-.355.54-.355.86 0 .32.128.632.354.858.225.226.538.355.858.355zm0 0M127.503-26.405c.318 0 .632-.13.855-.355.228-.227.356-.54.356-.86 0-.317-.13-.632-.356-.858-.224-.227-.537-.355-.855-.355-.32 0-.633.13-.856.355-.227.227-.357.54-.357.86 0 .32.13.632.357.858.223.226.536.355.856.355zm0 0M137.948-26.405h43.89c.674 0 1.216-.545 1.216-1.215s-.542-1.215-1.215-1.215h-43.892c-.67 0-1.212.545-1.212 1.215s.54 1.215 1.212 1.215zm0 0M192.03-26.405h2.586c.67 0 1.214-.545 1.214-1.215s-.544-1.215-1.214-1.215h-2.587c-.673 0-1.214.545-1.214 1.215s.54 1.215 1.213 1.215zm0 0"/><path fill="none" stroke="#000" stroke-width=".7" stroke-miterlimit="10" d="M115.07-23.05h82.522"/><path d="M175.648-.628c-1.464 0-2.657-1.193-2.657-2.66v-3.87c0-2.802-2.273-5.08-5.067-5.08h-1.29c-.666 0-1.206.542-1.206 1.21s.54 1.21 1.207 1.21h1.29c1.463 0 2.654 1.192 2.654 2.66v3.87c0 1.55.696 2.938 1.788 3.87-1.092.933-1.788 2.32-1.788 3.87v3.87c0 1.468-1.19 2.66-2.655 2.66h-1.29c-.666 0-1.206.542-1.206 1.21s.54 1.21 1.207 1.21h1.29c2.793 0 5.067-2.28 5.067-5.08v-3.87c0-1.467 1.194-2.66 2.658-2.66.668 0 1.208-.543 1.208-1.21 0-.667-.54-1.21-1.208-1.21zm0 0M142.084-3.288v-3.87c0-1.468 1.19-2.66 2.656-2.66h1.29c.664 0 1.205-.542 1.205-1.21s-.54-1.21-1.206-1.21h-1.29c-2.796 0-5.07 2.278-5.07 5.08v3.87c0 1.467-1.19 2.66-2.658 2.66-.666 0-1.206.543-1.206 1.21 0 .667.54 1.21 1.206 1.21 1.467 0 2.658 1.193 2.658 2.66v3.87c0 2.8 2.274 5.08 5.07 5.08h1.29c.664 0 1.205-.542 1.205-1.21s-.54-1.21-1.206-1.21h-1.29c-1.465 0-2.656-1.192-2.656-2.66v-3.87c0-1.55-.695-2.938-1.79-3.87 1.095-.933 1.79-2.32 1.79-3.87zm0 0M162.77 5.823c-.315 0-.63.13-.853.355-.225.223-.354.535-.354.854s.13.63.354.855c.223.225.537.354.853.354.32 0 .63-.128.854-.353.226-.225.354-.537.354-.855s-.13-.63-.354-.854c-.224-.226-.536-.355-.854-.355zm0 0M156.33 5.823c-.317 0-.628.13-.853.355-.225.223-.354.535-.354.854 0 .32.13.63.354.855.226.225.536.354.854.354.318 0 .63-.128.855-.353.225-.225.353-.537.353-.855s-.128-.63-.353-.854c-.225-.226-.537-.355-.854-.355zm0 0M149.89 5.823c-.316 0-.627.13-.85.355-.227.223-.355.535-.355.854s.13.63.354.855c.223.225.535.354.85.354.32 0 .632-.128.855-.353.226-.225.354-.537.354-.855s-.13-.63-.355-.854c-.224-.226-.536-.355-.854-.355zm0 0"/><path fill="none" stroke="#000" stroke-width=".7" stroke-miterlimit="10" d="M147.235 29.77s.96 4.726-3.727 13.052M165.946 29.77s-.96 4.726 3.727 13.052M139.283 43.036c.174 1.29 1.27 2.95 2.605 2.95h29.406c1.337 0 2.432-1.66 2.604-2.95h-34.615z"/><g><path fill="none" stroke="#000" stroke-width=".7" stroke-miterlimit="10" d="M197.592 23.286c0 1.1-.9 2-2 2H117.07c-1.1 0-2-.9-2-2v-53.66c0-1.1.9-2 2-2h78.522c1.1 0 2 .9 2 2v53.66z"/></g></svg>
