<svg version="1" xmlns="http://www.w3.org/2000/svg" width="43.975" height="44.697" viewBox="102.568 -11.83 43.975 44.697"><g fill="none" stroke="#000" stroke-width=".7" stroke-miterlimit="10"><path d="M144.315 3.534c.54-.064.947-.52.947-1.06v-2.53c0-.54-.408-1-.947-1.062l-1.555-.177c-.195-.776-.492-1.53-.88-2.228l.974-1.234c.336-.43.3-1.037-.082-1.42l-1.783-1.79c-.384-.38-.993-.42-1.42-.08l-1.163.922c-.746-.445-1.543-.783-2.383-1.006l-.168-1.453c-.063-.545-.518-.95-1.06-.95h-2.524c-.54 0-.994.404-1.06.95l-.17 1.452c-.813.218-1.593.543-2.317.97l-1.123-.888c-.426-.34-1.033-.307-1.42.082l-1.777 1.783c-.383.383-.418.993-.082 1.42l.914 1.158c-.39.69-.693 1.432-.896 2.21l-1.483.173c-.54.06-.947.52-.947 1.063V2.37c0 .543.408 1 .947 1.062l1.506.173c.21.786.527 1.534.934 2.235l-.98 1.24c-.335.428-.3 1.038.083 1.424l1.783 1.79c.387.377.994.415 1.42.074l1.254-.992c.715.402 1.477.71 2.273.92l.186 1.613c.06.54.52.946 1.06.946h2.522c.543 0 1-.405 1.06-.946l.196-1.675c.74-.212 1.45-.51 2.117-.897l1.3 1.03c.428.34 1.037.303 1.42-.08l1.783-1.788c.38-.386.418-.993.082-1.42l-1.037-1.31c.365-.645.65-1.328.86-2.042l1.637-.19zm-10.783-6.646c2.3 0 4.172 1.875 4.172 4.18 0 2.3-1.87 4.177-4.172 4.177-2.297 0-4.17-1.876-4.17-4.178 0-2.304 1.873-4.18 4.17-4.18zm0 0M106.575 5.45c-.41.348-.494.95-.19 1.397l.58.875c-.368.538-.665 1.123-.884 1.744l-1.062.033c-.537.017-.97.436-1.018.97l-.148 1.74c-.04.532.324 1.02.844 1.127l1.06.214c.118.654.325 1.287.61 1.89l-.775.82c-.366.392-.384.997-.036 1.41L106.68 19c.343.41.94.494 1.39.198l.957-.636c.555.378 1.154.683 1.79.908l.036 1.166c.018.54.434.973.97 1.02l1.735.15c.53.043 1.018-.323 1.123-.847l.243-1.195c.617-.118 1.217-.318 1.787-.58l.867.813c.393.367.996.387 1.408.04l1.33-1.128c.41-.35.496-.944.2-1.39l-.665-1.008c.344-.5.627-1.042.842-1.606l1.188-.04c.535-.017.975-.437 1.02-.97l.148-1.738c.04-.536-.324-1.024-.848-1.127l-1.098-.224c-.11-.647-.3-1.278-.566-1.88l.768-.82c.37-.386.385-.996.04-1.406l-1.126-1.343c-.346-.41-.94-.496-1.39-.2l-.878.586c-.574-.416-1.207-.745-1.873-.988l-.033-1.03c-.018-.54-.438-.978-.97-1.022l-1.737-.146c-.535-.044-1.018.322-1.12.846l-.21 1.014c-.682.125-1.34.335-1.963.637l-.732-.692c-.39-.365-.996-.383-1.404-.036l-1.333 1.125zm6.547 10.06c-1.877-.156-3.273-1.817-3.115-3.697.156-1.88 1.814-3.28 3.69-3.12 1.876.155 3.276 1.814 3.114 3.695-.153 1.883-1.81 3.284-3.688 3.12zm0 0M136.108 21c-.148-.578-.377-1.13-.67-1.647l.5-.652c.37-.472.324-1.14-.107-1.56l-.85-.837c-.43-.42-1.093-.444-1.56-.072l-.588.482c-.555-.32-1.152-.564-1.77-.723l-.095-.736c-.074-.59-.58-1.036-1.18-1.024l-1.188.012c-.597.006-1.095.465-1.155 1.056l-.076.74c-.603.165-1.175.416-1.71.74l-.566-.437c-.477-.366-1.143-.316-1.56.108l-.83.852c-.42.43-.446 1.098-.07 1.56l.472.586c-.28.518-.496 1.07-.643 1.647l-.762.1c-.59.074-1.034.58-1.02 1.178l.014 1.193c.004.595.46 1.095 1.05 1.155l.78.08c.164.578.404 1.13.713 1.646l-.5.656c-.37.477-.32 1.14.105 1.56l.85.834c.428.42 1.094.448 1.56.07l.66-.532c.532.293 1.1.514 1.688.658l.11.854c.07.596.58 1.04 1.18 1.027l1.187-.013c.596-.002 1.094-.46 1.152-1.055l.095-.902c.545-.16 1.066-.39 1.56-.682l.698.54c.473.37 1.143.32 1.56-.106l.833-.852c.416-.428.443-1.096.068-1.563l-.56-.697c.265-.48.472-.986.616-1.516l.875-.112c.59-.08 1.033-.587 1.023-1.185l-.014-1.19c-.006-.597-.46-1.094-1.055-1.154l-.822-.084zm-6.843-1.26c1.703-.02 3.107 1.345 3.127 3.057.018 1.706-1.35 3.11-3.05 3.132-1.708.017-3.11-1.35-3.13-3.06-.02-1.707 1.346-3.114 3.053-3.13zm0 0"/></g></svg>
