<svg version="1" xmlns="http://www.w3.org/2000/svg" width="96.167" height="89.742" viewBox="108.251 -40.063 96.167 89.742"><path fill="none" stroke="#000" stroke-width=".7" stroke-miterlimit="10" d="M186.813 43.392c0 2.2-1.8 4-4 4h-52.958c-2.2 0-4-1.8-4-4v-77.166c0-2.2 1.8-4 4-4h52.958c2.2 0 4 1.8 4 4v77.166z"/><path d="M146.16-23.56h22.13c.627 0 1.136-.398 1.136-.892 0-.492-.51-.892-1.137-.892h-22.13c-.63 0-1.138.4-1.138.892 0 .494.51.892 1.138.892zm-.942 0M176.623-23.56h3.722c.494 0 .892-.398.892-.892 0-.492-.397-.892-.892-.892h-3.722c-.492 0-.892.4-.892.892 0 .494.4.892.893.892zm0 0"/><path fill="none" stroke="#000" stroke-width=".7" stroke-miterlimit="10" d="M184.18 36.528c0 .55-.45 1-1 1h-53.452c-.55 0-1-.45-1-1v-63.44c0-.55.45-1 1-1h53.452c.55 0 1 .45 1 1v63.44z"/><path d="M132.027-23.56c.233 0 .465-.095.63-.262.164-.165.263-.395.263-.63s-.1-.464-.262-.632c-.166-.165-.397-.26-.63-.26s-.465.095-.632.26c-.165.168-.26.397-.26.632s.095.465.26.63c.167.168.398.262.63.262zm0 0M134.877-23.56c.235 0 .464-.095.63-.262.165-.165.26-.395.26-.63 0-.234-.095-.464-.26-.632-.166-.165-.395-.26-.63-.26-.234 0-.464.095-.63.26-.165.168-.26.397-.26.632s.095.465.26.63c.166.168.396.262.63.262zm0 0M137.73-23.56c.23 0 .463-.095.628-.262.166-.165.26-.395.26-.63 0-.234-.094-.464-.26-.632-.165-.165-.397-.26-.63-.26-.234 0-.466.095-.63.26-.167.168-.26.397-.26.632s.093.465.26.63c.164.168.395.262.63.262zm0 0"/><path fill="none" stroke="#000" stroke-width=".7" stroke-miterlimit="10" d="M128.49-21.096h55.545M128.49 32.722h55.545"/><path d="M152.764 7.672V6.91c-2.46-1.146-4.173-3.64-4.173-6.53 0-3.974 3.228-7.206 7.193-7.206 3.967 0 7.193 3.232 7.193 7.205 0 3.046-1.9 5.65-4.575 6.703v.735c3.064-1.085 5.268-4.005 5.268-7.44 0-4.353-3.538-7.896-7.885-7.896-4.346 0-7.883 3.543-7.883 7.897 0 3.282 2.01 6.102 4.864 7.292z"/><path d="M161.83.38c0-3.142-2.55-5.695-5.686-5.695S150.457-2.76 150.457.38c0 2.025 1.07 3.796 2.666 4.806v-.85c-1.192-.914-1.975-2.34-1.975-3.957 0-2.76 2.238-5.004 4.995-5.004 2.752 0 4.994 2.244 4.994 5.003 0 1.793-.955 3.356-2.377 4.24v.783c1.817-.953 3.07-2.836 3.07-5.024z"/><path d="M162.704 18.347c-.018.027-.028.06-.03.094l-.18 2.927c-.008.102-.09.19-.194.19h-7.146c-.07 0-.138-.048-.17-.112l-5.087-9.76c-.646-1.066.264-2.07 1.192-2.07.41 0 .824.195 1.11.668l.65 1.002c.136.207.322.3.524.3.335 0 .645-.25.645-.66V3.998c0-.9.67-1.35 1.344-1.35s1.345.45 1.345 1.35v3.938c0 .108.11.194.214.194.018 0 .05-.005.07-.01.187-.063.47-.13.78-.13.536 0 1.172.198 1.616.965.04.064.11.103.18.103.024 0 .046-.004.068-.012.18-.067.495-.158.852-.158.5 0 1.09.177 1.528.85.104.158.28.255.473.267.605.034 1.894.328 2.2 2.158.295 1.76-.21 3.492-1.986 6.184z"/><circle fill="none" stroke="#000" stroke-width=".7" stroke-miterlimit="10" cx="156.864" cy="42.312" r="2.129"/><path fill="none" stroke="#000" stroke-linecap="round" stroke-miterlimit="10" d="M153.25-32.626h6.508"/></svg>
