<svg version="1" xmlns="http://www.w3.org/2000/svg" width="43.975" height="44.697" viewBox="102.568 -11.83 43.975 44.697"><g fill="none" stroke="#000" stroke-width=".7" stroke-miterlimit="10"><path d="M107.65 6.79c.086 3.118 1.542 4.864 2.98 6.49.097 1.665.214 2.772-.412 5.317 2.88-1.01 3.354-1.39 4.938-2.426 1.67.36 2.467.565 4.362.698-.123 1.184-.077 2.127.184 3.367-1.255-.064-2.55-.23-3.893-.518-2.286 1.494-7.37 3.078-10.957 3.822 1.275-2.69 2.668-6.378 2.52-8.92-1.87-2.122-2.97-4.892-3.047-7.74-.22-8.034 7.467-14.118 16.244-14.358 8.705-.238 16.743 5.347 16.996 13.396-1.075-.264-2.21-.402-3.373-.432-.534-5.555-6.445-9.83-13.53-9.64C113.33-3.948 107.49.962 107.65 6.79z"/><path d="M142.824 22.773c1.147-1.447 1.77-3.3 1.718-5.166-.144-5.258-5.384-8.963-11.128-8.806-5.713.156-10.777 4.117-10.632 9.402.127 4.662 4.62 8.94 11.046 8.766 1.162-.033 2.393-.207 3.668-.56 1.546.894 4.925 1.743 7.294 2.112-.928-1.715-1.968-4.075-1.966-5.747z"/><path d="M128.81 20.178c-1.13.03-2.07-.867-2.102-1.992-.032-1.13.86-2.078 1.987-2.107 1.13-.034 2.07.862 2.102 1.995.03 1.122-.86 2.07-1.988 2.103zM133.795 20.04c-1.125.03-2.07-.866-2.102-1.99-.03-1.134.864-2.08 1.99-2.11 1.128-.03 2.072.865 2.102 1.996.033 1.127-.86 2.074-1.99 2.103zM138.783 19.904c-1.13.03-2.073-.865-2.103-1.99-.032-1.133.863-2.078 1.99-2.11s2.07.866 2.1 2c.033 1.124-.862 2.07-1.987 2.1z"/></g></svg>
