<svg xmlns="http://www.w3.org/2000/svg" version="1" width="95.357" height="69.114" viewBox="110.226 -30.886 95.357 69.114"><path fill="none" stroke="#77429c" stroke-width=".7" stroke-miterlimit="10" d="M203.664 32.34a4.4 4.4 0 0 1-4.4 4.4h-82.717c-2.432 0-4.4-1.97-4.4-4.4v-57.338a4.4 4.4 0 0 1 4.4-4.4h82.717c2.434 0 4.4 1.97 4.4 4.4V32.34z"/><path d="M121.31-19.435c.316 0 .633-.13.857-.356a1.23 1.23 0 0 0 .355-.86c0-.32-.13-.634-.355-.86a1.22 1.22 0 0 0-1.716 0 1.22 1.22 0 0 0 .002 1.718c.225.226.54.356.86.357zm3.883 0c.314 0 .63-.13.855-.356a1.23 1.23 0 0 0 .355-.86c0-.318-.13-.634-.355-.86a1.214 1.214 0 1 0-.856 2.074h.004zm3.88 0a1.214 1.214 0 0 0 1.21-1.216c0-.318-.13-.634-.355-.86a1.215 1.215 0 0 0-.854-.354c-.32 0-.633.13-.857.354-.227.228-.357.54-.357.86a1.217 1.217 0 0 0 1.212 1.214h.002zm10.444 0h43.89a1.216 1.216 0 1 0 .001-2.429h-43.89c-.673 0-1.214.543-1.214 1.214 0 .67.54 1.215 1.213 1.215zm54.082 0h2.586c.67 0 1.21-.545 1.21-1.215s-.54-1.214-1.21-1.214H193.6c-.675 0-1.216.543-1.216 1.214 0 .67.54 1.215 1.213 1.215h.002z" fill="#77429c"/><path fill="none" stroke="#77429c" stroke-width=".7" stroke-miterlimit="10" d="M116.64-16.08h82.52m0 46.336c0 1.1-.9 2-2 2h-78.52c-1.1 0-2-.9-2-2v-53.658c0-1.1.9-2 2-2h78.52c1.1 0 2 .9 2 2v53.658z"/><path d="M157.146-10.155c17.68 7.8 14.76 20.516 14.76 20.516s5.393 4.217 4.41 8.97c0 0-2.418-2.743-5.498-2.174-2.977.548-4.154 3.957-10.164 5.064-13.352 2.46-21.717-7.536-21.717-7.536 13.48 5.72 20.656-1.415 20.656-1.415C153.59 11.113 139.3-1.815 139.3-1.815c11.617 6.705 16.363 8.15 16.363 8.15C152.675 4.674 143.49-4.45 143.49-4.45c6.895 4.82 19.943 10.895 19.943 10.895 1.63-9.674-6.29-16.6-6.29-16.6" fill="#77429c"/></svg>