<svg version="1" xmlns="http://www.w3.org/2000/svg" width="94.772" height="68.689" viewBox="110.226 -30.462 94.772 68.689"><path fill="none" stroke="#000" stroke-width=".7" stroke-miterlimit="10" d="M203.372 32.55c0 2.43-1.97 4.4-4.398 4.4h-82.72c-2.43 0-4.4-1.97-4.4-4.4v-57.336c0-2.43 1.97-4.4 4.4-4.4h82.72c2.43 0 4.398 1.97 4.398 4.4V32.55z"/><path d="M121.017-19.223c.318 0 .63-.13.86-.356.224-.225.353-.54.353-.857 0-.322-.13-.634-.354-.86-.23-.227-.542-.355-.86-.355-.32 0-.633.13-.86.355-.224.227-.353.54-.353.86 0 .318.13.632.354.857.227.226.54.356.86.357zm3.88 0c.32 0 .632-.13.858-.356.227-.225.357-.54.357-.857 0-.32-.13-.634-.357-.86s-.54-.355-.857-.355c-.32 0-.632.13-.855.355-.227.227-.355.54-.355.86 0 .318.13.632.354.857.223.226.536.356.856.357zm3.882 0c.317 0 .632-.13.856-.356.227-.225.354-.54.354-.857 0-.32-.13-.634-.354-.86-.226-.227-.54-.355-.858-.355-.317 0-.63.13-.854.355-.228.227-.356.54-.356.86 0 .318.13.632.356.857.224.226.537.356.854.356zm10.448 0h43.89c.672 0 1.215-.545 1.215-1.215s-.543-1.215-1.216-1.215h-43.89c-.673 0-1.214.544-1.214 1.215 0 .67.54 1.215 1.213 1.215h.002zm54.08 0h2.586c.67 0 1.213-.545 1.213-1.215s-.543-1.215-1.213-1.215h-2.588c-.673 0-1.214.544-1.214 1.215 0 .67.54 1.215 1.213 1.215h.002z"/><path fill="none" stroke="#000" stroke-width=".7" stroke-miterlimit="10" d="M116.345-15.868h82.523m0 46.336c0 1.1-.898 2-2 2h-78.52c-1.1 0-2-.9-2-2v-53.66c0-1.1.9-2 2-2h78.52c1.102 0 2 .9 2 2v53.66z"/><path d="M159.543-10.33v4.945c.64-.292 1.336-.447 2.05-.447.665 0 1.313.133 1.92.394.59.252 1.116.61 1.567 1.068.928.943 1.428 2.19 1.41 3.518-.02 1.28-.53 2.49-1.44 3.4-.913.912-2.118 1.424-3.4 1.44h-.06c-.71 0-1.408-.155-2.047-.448l-.002 4.904h5.863c-.145.247-.354.557-.594.91-.468.68-.814 1.47-.8 2.36.02 2.015 1.662 3.66 3.672 3.687h.053c2.06 0 3.727-1.67 3.727-3.732 0-.873-.342-1.646-.8-2.31-.222-.326-.452-.667-.597-.915h5.472c.864 0 1.565-.703 1.565-1.568V-8.762c0-.867-.7-1.568-1.565-1.568H159.54h.003z"/><path d="M144.542 7.3c-.29-.64-.447-1.34-.447-2.05 0-1.31.513-2.545 1.437-3.47.926-.93 2.156-1.44 3.465-1.44h.072c1.275.02 2.482.53 3.394 1.443s1.42 2.12 1.436 3.402c.01.733-.145 1.455-.443 2.112h4.92l-.002-5.886c.21.12.592.38.945.623.652.452 1.416.775 2.275.775h.045c2.01-.026 3.653-1.668 3.68-3.68.01-.69-.166-1.338-.482-1.896-.64-1.13-1.852-1.894-3.24-1.894-.86 0-1.605.35-2.277.776-.413.262-.734.502-.94.62v-7.05H141.2c-.86 0-1.563.703-1.563 1.57v16.04h4.907V7.3z"/><path d="M141.19 27.247h17.175v-7.203s-.63.546-.83.69c-.646.538-1.477.862-2.38.862-2.08 0-3.76-1.7-3.73-3.788.03-2.013 1.67-3.655 3.68-3.68.018-.002.034-.002.05-.002.904 0 1.734.324 2.38.862.202.143.83.69.83.69V8.472h-7.038c.058-.11.37-.59.627-.95.468-.662.78-1.45.77-2.323-.023-2.014-1.665-3.658-3.673-3.687h-.055c-.963 0-1.842.367-2.502.97-.752.683-1.225 1.67-1.225 2.765 0 .856.32 1.62.77 2.274.29.416.505.737.62.938 0 .004.003.008.006.01h-7.037v17.207c0 .865.7 1.568 1.565 1.568v.002z"/></svg>
