<svg version="1" xmlns="http://www.w3.org/2000/svg" width="24.301" height="24.3" viewBox="0 0 24.301 24.3"><path fill="#24B574" d="M24.3 19.8c0 2.485-2.015 4.5-4.5 4.5H4.5c-2.484 0-4.5-2.015-4.5-4.5V4.5C0 2.014 2.016 0 4.5 0h15.302c2.484 0 4.5 2.013 4.5 4.5v15.3z"/><path fill="#FFF" d="M18.038 16.233c-2.305-.53-4.447-.998-3.41-2.96 3.162-5.968.838-9.16-2.5-9.16-3.403 0-5.67 3.313-2.498 9.16 1.068 1.972-1.157 2.44-3.41 2.96-2.058.475-2.136 1.496-2.128 3.283l.002.67h16.07c0-.227 0-.44.003-.648.007-1.8-.065-2.83-2.13-3.305z"/></svg>
