<svg xmlns="http://www.w3.org/2000/svg" viewBox="0 0 34.19 47.78"><path d="M1.3 46c-3.8-2.4 1.7-26 4-29.2 2-2.6 24.2-3.3 25 0 3.3 13.4 5.2 30 2.8 30.5-4.4.6-28 1-31.7-1.3z" fill="#b0afaf"/><path d="M9.5 11.8c-.2-.3 1-9.7 7-10.7C23.8 0 26 8.4 26 12" fill="none" stroke="#c9c9c9" stroke-linecap="round" stroke-linejoin="round" stroke-width="2"/><path d="M12.3 23a4.7 4.7 0 0 0 .2 1.6 1 1 0 0 0 2-.6 3 3 0 0 1 0-1 1 1 0 0 0-1-1 1 1 0 0 0-1.2 1zM20.7 22.7V24a1 1 0 0 0 1.2 1 1 1 0 0 0 1-1v-1.3a1 1 0 0 0-2.3 0zM13.6 30.6c2.2 2.2 6.5 2.5 8.2-.4a.8.8 0 0 0-1.3-.8c-1.3 2-4.3 1.6-5.8 0a.8.8 0 0 0-1 1.2z" fill="#fff"/></svg>