<?xml version="1.0" encoding="utf-8"?>
<!-- Generator: Adobe Illustrator 16.0.0, SVG Export Plug-In . SVG Version: 6.00 Build 0)  -->
<!DOCTYPE svg PUBLIC "-//W3C//DTD SVG 1.0//EN" "http://www.w3.org/TR/2001/REC-SVG-20010904/DTD/svg10.dtd">
<svg version="1.0" id="Layer_1" xmlns="http://www.w3.org/2000/svg" xmlns:xlink="http://www.w3.org/1999/xlink" x="0px" y="0px"
	 width="17.343px" height="16.531px" viewBox="0 0 17.343 16.531" enable-background="new 0 0 17.343 16.531" xml:space="preserve">
<g>
	<path fill="#666666" d="M1.638,3.108l6.018,4.769c0.273,0.215,0.651,0.311,1.014,0.293c0.366,0.018,0.74-0.076,1.016-0.293
		l6.02-4.769c0.48-0.381,0.372-0.691-0.241-0.691H1.877C1.266,2.416,1.158,2.727,1.638,3.108L1.638,3.108z M1.638,3.108"/>
	<path fill="#666666" d="M16.138,4.365L9.559,9.359C9.314,9.543,8.992,9.634,8.672,9.63C8.35,9.634,8.028,9.543,7.782,9.359
		L1.205,4.365C0.715,3.995,0.317,4.194,0.317,4.807v8.192c0,0.612,0.501,1.116,1.112,1.116h14.482c0.612,0,1.114-0.504,1.114-1.116
		V4.807C17.026,4.194,16.626,3.995,16.138,4.365L16.138,4.365z M16.138,4.365"/>
</g>
</svg>
