<svg version="1" xmlns="http://www.w3.org/2000/svg" width="17.343" height="16.531" viewBox="0 0 17.343 16.531"><g fill="#666"><path d="M1.638 3.108l6.018 4.77c.273.214.65.31 1.014.292.366.018.74-.076 1.016-.293l6.02-4.77c.48-.38.372-.69-.24-.69H1.875c-.61 0-.718.31-.238.69zm0 0"/><path d="M16.138 4.365L9.558 9.36c-.244.183-.566.274-.886.27-.322.004-.644-.087-.89-.27L1.205 4.364c-.49-.37-.888-.17-.888.442V13c0 .61.5 1.115 1.112 1.115h14.48c.613 0 1.115-.504 1.115-1.116V4.806c0-.613-.4-.812-.887-.442zm0 0"/></g></svg>
