<svg version="1" xmlns="http://www.w3.org/2000/svg" width="17.343" height="16.532" viewBox="5.246 1.448 17.343 16.532"><path fill="#FFF" d="M17.168 17.433c-.096-.035-.166-.098-.21-.19-.044-.09-.065-.21-.065-.356v-3.115c0-.842-.227-1.46-.678-1.848.498-.055.94-.133 1.336-.236.397-.105.806-.273 1.226-.508.422-.234.773-.523 1.057-.867.28-.342.512-.8.69-1.367.18-.568.265-1.222.265-1.96 0-1.05-.342-1.945-1.027-2.684.32-.79.286-1.677-.103-2.658-.244-.078-.596-.03-1.055.145-.46.172-.86.364-1.2.572l-.495.312c-.807-.226-1.643-.338-2.5-.338-.86 0-1.693.112-2.502.338-.14-.098-.325-.214-.555-.353-.23-.137-.592-.305-1.088-.5-.494-.196-.867-.255-1.12-.177-.382.98-.41 1.868-.09 2.658-.687.738-1.03 1.633-1.03 2.685 0 .738.09 1.388.268 1.953s.406 1.02.684 1.37c.28.345.627.638 1.05.872s.83.402 1.224.508c.396.104.84.182 1.336.236-.348.31-.56.758-.64 1.34-.18.088-.376.152-.587.197-.207.042-.455.065-.74.065-.287 0-.574-.096-.855-.28s-.52-.458-.72-.815c-.167-.277-.378-.504-.634-.676-.256-.174-.47-.28-.645-.313l-.26-.04c-.185 0-.31.02-.38.06s-.092.09-.063.15c.023.06.063.12.113.18.055.064.11.114.17.16l.094.063c.19.086.377.252.564.496.19.24.325.462.41.663l.134.3c.11.33.303.597.572.802.27.2.56.334.87.39s.616.087.905.09c.294.005.534-.01.726-.044l.3-.052c0 .33.003.777.007 1.342l.006.887c0 .19-.048.336-.144.436s-.19.156-.287.168c-.097.015-.24.333-.433.333h6.672c-.14 0-.247-.316-.32-.326-.072-.01-.156-.028-.252-.064z"/></svg>
