<svg version="1" xmlns="http://www.w3.org/2000/svg" width="28.836" height="26.874" viewBox="-10.359 10.185 28.836 26.874"><path fill="#F2F2F2" stroke="#999" stroke-width=".5" stroke-miterlimit="10" d="M18.227 34.56c0 1.245-1.035 2.25-2.31 2.25H-7.8c-1.274 0-2.31-1.005-2.31-2.25V12.684c0-1.24 1.035-2.248 2.31-2.248h23.718c1.273 0 2.31 1.008 2.31 2.248V34.56z"/><path fill="#666" d="M5.525 19.72c0 .273-.225.5-.5.5h-1.93c-.276 0-.5-.227-.5-.5v-1.933c0-.274.224-.5.5-.5h1.93c.276 0 .5.226.5.5v1.932zM5.525 24.588c0 .274-.225.5-.5.5h-1.93c-.276 0-.5-.226-.5-.5v-1.932c0-.274.224-.5.5-.5h1.93c.276 0 .5.226.5.5v1.932zM5.525 29.458c0 .275-.225.5-.5.5h-1.93c-.276 0-.5-.225-.5-.5v-1.934c0-.275.224-.5.5-.5h1.93c.276 0 .5.225.5.5v1.934zM10.54 19.72c0 .273-.226.5-.5.5H8.106c-.275 0-.5-.227-.5-.5v-1.933c0-.274.225-.5.5-.5h1.932c.274 0 .5.226.5.5v1.932zM10.54 24.588c0 .274-.226.5-.5.5H8.106c-.275 0-.5-.226-.5-.5v-1.932c0-.274.225-.5.5-.5h1.932c.274 0 .5.226.5.5v1.932zM10.54 29.458c0 .275-.226.5-.5.5H8.106c-.275 0-.5-.225-.5-.5v-1.934c0-.275.225-.5.5-.5h1.932c.274 0 .5.225.5.5v1.934zM.512 19.72c0 .273-.225.5-.5.5H-1.92c-.275 0-.5-.227-.5-.5v-1.933c0-.274.225-.5.5-.5H.012c.275 0 .5.226.5.5v1.932zM.512 24.588c0 .274-.225.5-.5.5H-1.92c-.275 0-.5-.226-.5-.5v-1.932c0-.274.225-.5.5-.5H.012c.275 0 .5.226.5.5v1.932zM.512 29.458c0 .275-.225.5-.5.5H-1.92c-.275 0-.5-.225-.5-.5v-1.934c0-.275.225-.5.5-.5H.012c.275 0 .5.225.5.5v1.934z"/></svg>
