<svg version="1" xmlns="http://www.w3.org/2000/svg" width="28.836" height="26.875" viewBox="-31.813 9.948 28.836 26.875"><path fill="#FFF" stroke="#999" stroke-width=".5" stroke-miterlimit="10" d="M-3.228 34.325c0 1.244-1.035 2.248-2.31 2.248h-23.718c-1.273 0-2.31-1.004-2.31-2.248V12.447c0-1.24 1.036-2.248 2.31-2.248h23.72c1.272 0 2.308 1.007 2.308 2.247v21.878z"/><path fill="#666" d="M-15.93 19.483c0 .274-.224.5-.5.5h-1.93c-.276 0-.5-.226-.5-.5V17.55c0-.273.224-.5.5-.5h1.93c.276 0 .5.227.5.5v1.933zM-15.93 24.352c0 .274-.224.5-.5.5h-1.93c-.276 0-.5-.226-.5-.5V22.42c0-.274.224-.5.5-.5h1.93c.276 0 .5.226.5.5v1.932zM-15.93 29.22c0 .276-.224.5-.5.5h-1.93c-.276 0-.5-.224-.5-.5v-1.933c0-.275.224-.5.5-.5h1.93c.276 0 .5.225.5.5v1.934zM-10.915 19.483c0 .274-.225.5-.5.5h-1.932c-.275 0-.5-.226-.5-.5V17.55c0-.273.225-.5.5-.5h1.932c.275 0 .5.227.5.5v1.933zM-10.915 24.352c0 .274-.225.5-.5.5h-1.932c-.275 0-.5-.226-.5-.5V22.42c0-.274.225-.5.5-.5h1.932c.275 0 .5.226.5.5v1.932zM-10.915 29.22c0 .276-.225.5-.5.5h-1.932c-.275 0-.5-.224-.5-.5v-1.933c0-.275.225-.5.5-.5h1.932c.275 0 .5.225.5.5v1.934zM-20.942 19.483c0 .274-.225.5-.5.5h-1.932c-.275 0-.5-.226-.5-.5V17.55c0-.273.225-.5.5-.5h1.932c.275 0 .5.227.5.5v1.933zM-20.942 24.352c0 .274-.225.5-.5.5h-1.932c-.275 0-.5-.226-.5-.5V22.42c0-.274.225-.5.5-.5h1.932c.275 0 .5.226.5.5v1.932zM-20.942 29.22c0 .276-.225.5-.5.5h-1.932c-.275 0-.5-.224-.5-.5v-1.933c0-.275.225-.5.5-.5h1.932c.275 0 .5.225.5.5v1.934z"/></svg>
