<svg xmlns="http://www.w3.org/2000/svg" viewBox="0 0 18 18"><title>group</title><path d="M6,2V6H2V2H6M6,0H2A2,2,0,0,0,0,2V6A2,2,0,0,0,2,8H6A2,2,0,0,0,8,6V2A2,2,0,0,0,6,0H6Z" style="fill:#536eb3"/><path d="M16,2V6H12V2h4m0-2H12a2,2,0,0,0-2,2V6a2,2,0,0,0,2,2h4a2,2,0,0,0,2-2V2a2,2,0,0,0-2-2h0Z" style="fill:#536eb3"/><path d="M6,12v4H2V12H6m0-2H2a2,2,0,0,0-2,2v4a2,2,0,0,0,2,2H6a2,2,0,0,0,2-2V12a2,2,0,0,0-2-2H6Z" style="fill:#536eb3"/><path d="M16,12v4H12V12h4m0-2H12a2,2,0,0,0-2,2v4a2,2,0,0,0,2,2h4a2,2,0,0,0,2-2V12a2,2,0,0,0-2-2h0Z" style="fill:#536eb3"/></svg>