<?xml version="1.0" encoding="utf-8"?>
<!-- Generator: Adobe Illustrator 16.0.0, SVG Export Plug-In . SVG Version: 6.00 Build 0)  -->
<!DOCTYPE svg PUBLIC "-//W3C//DTD SVG 1.0//EN" "http://www.w3.org/TR/2001/REC-SVG-20010904/DTD/svg10.dtd">
<svg version="1.0" id="Layer_1" xmlns="http://www.w3.org/2000/svg" xmlns:xlink="http://www.w3.org/1999/xlink" x="0px" y="0px"
	 width="25.15px" height="25.15px" viewBox="0 0 25.15 25.15" enable-background="new 0 0 25.15 25.15" xml:space="preserve">
<g>
	<path fill="none" stroke="#24B574" stroke-width="0.5" stroke-miterlimit="10" d="M24.725,20.225c0,2.484-2.016,4.5-4.5,4.5H4.924
		c-2.483,0-4.5-2.016-4.5-4.5v-15.3c0-2.485,2.017-4.5,4.5-4.5h15.301c2.484,0,4.5,2.015,4.5,4.5V20.225z"/>
	<path fill="#24B574" d="M9.146,18.27c0.785-2.486,2.27-5.465,2.533-6.219c0.379-1.093-0.296-1.579-2.421,0.291
		c-0.135-0.275-0.327-0.588-0.471-0.889c2.424-2.638,7.415-3.232,5.715,0.853c-1.061,2.552-1.818,4.273-2.252,5.601
		c-0.633,1.936,0.965,1.15,2.528-0.295c0.215,0.35,0.279,0.461,0.496,0.861C11.799,21.778,7.948,22.069,9.146,18.27z"/>
	<path fill="#24B574" d="M15.735,6.917c-0.738,0.629-1.834,0.615-2.445-0.031c-0.612-0.646-0.509-1.679,0.23-2.308
		c0.736-0.629,1.832-0.615,2.443,0.03C16.575,5.255,16.473,6.287,15.735,6.917z"/>
</g>
</svg>
