<svg version="1" xmlns="http://www.w3.org/2000/svg" width="28.836" height="26.875" viewBox="-2.268 -1.288 28.836 26.875"><path fill="none" stroke="#999" stroke-width=".5" stroke-miterlimit="10" d="M26.318 23.09c0 1.243-1.035 2.247-2.31 2.247H.292c-1.272 0-2.308-1.004-2.308-2.248V1.21c0-1.24 1.035-2.248 2.31-2.248H24.01c1.273 0 2.31 1.008 2.31 2.248v21.88z"/><path fill="#666" d="M7.69 7.47c0 .274-.226.5-.5.5H5.98c-.275 0-.5-.226-.5-.5V6.26c0-.275.225-.5.5-.5H7.19c.274 0 .5.225.5.5V7.47zM7.69 12.75c0 .276-.226.5-.5.5H5.98c-.275 0-.5-.224-.5-.5v-1.204c0-.275.225-.5.5-.5H7.19c.274 0 .5.225.5.5v1.205zM7.69 18.04c0 .273-.226.5-.5.5H5.98c-.275 0-.5-.227-.5-.5V16.83c0-.275.225-.5.5-.5H7.19c.274 0 .5.225.5.5v1.207z"/><g><path fill="#666" d="M18.82 7.47c0 .274-.225.5-.5.5H9.828c-.275 0-.5-.226-.5-.5V6.26c0-.275.225-.5.5-.5h8.492c.275 0 .5.225.5.5V7.47zM18.82 12.75c0 .276-.225.5-.5.5H9.828c-.275 0-.5-.224-.5-.5v-1.204c0-.275.225-.5.5-.5h8.492c.275 0 .5.225.5.5v1.205zM18.82 18.04c0 .273-.225.5-.5.5H9.828c-.275 0-.5-.227-.5-.5V16.83c0-.275.225-.5.5-.5h8.492c.275 0 .5.225.5.5v1.207z"/></g></svg>
