<svg xmlns="http://www.w3.org/2000/svg" viewBox="0 0 226.05 189.97"><path d="M136.7 88.3c-1-4.3 7.2-4 5.3-18.5-1.6-12.2-13.2-14.7-13.3-27.5 0-12.2 3.7-23.7 11.6-30.7S160.6 1.2 171.5.2c11.2-1 23 1.6 31.6 7.8 11.2 8 19 17.3 21.8 26.4 3.7 11.7-1.5 22.7-9.4 31-6 6.5-14 10.7-23 14.2s-18 5.3-26.6 6.5c-15 2.3-28.6 4.3-29 2.3z" fill="#e7324a"/><path d="M96.7 91.8s23-6.8 23-4-14.4 13-14.4 13 11.5 2.2 11 4.3-13.4 1.3-13.4 1.3zM125.3 164.5c1.2-3.3 7.7-2.4 13-.6 4.7 1.7 9.3 4.6 8.6 8.5-1 4-7.3 4.8-12.6 2.6s-10.3-7.2-9-10.5zM120 168c2.7-.3 4.3 4.2 4.8 8.2.5 3.7 0 7.7-2.7 8.5s-5.4-3-5.7-7.2 1.3-9.2 3.8-9.5zM50.8 176c.8-5.6 0-11.4 1.2-17 .4-1.7-2.5-2.6-3-.7-1 5.5-.3 11.3-1 16.8-.4 2 2.5 2.8 2.7 1z" fill="#1c51a0"/><path d="M25 140.5c4.3-10 7.5-22 14.3-31 7.5-10.2 17-18.4 26-22.8 10.3-5 21.6-4.6 31.8 5a29.5 29.5 0 0 1 7.6 31.8c-3.7 10.3-14.3 17-24.3 22-10.2 5-14.3 10.4-25 12.2-7.3 1.2-18.5-2.8-26-3-6-.2-8.4-5.3-4.4-14.2z" fill="#e7324a"/><path d="M56 117.2c-.4 12.7-14.2 22.3-25.3 24.2-1.6.2-1 2.6.6 2.4 12.3-2 26.7-12.8 27.2-26.6 0-1.6-2.4-1.6-2.5 0zM82 98.2a5 5 0 0 1 4-3.7c2.7-.4 4 1.4 3.6 4-.2 1 1.2 1.3 1.4.3.6-2.7-.6-5.8-3.8-6a6.6 6.6 0 0 0-6.6 5c-.3 1 1 1.3 1.4.4z" fill="#fff"/><path d="M63 172c.8-4.7 0-9.5 1-14 .5-2-2.4-2.8-2.8-1-1 4.7-.2 9.5-1 14.2-.2 2 2.7 2.7 3 .8z" fill="#1c51a0"/><path d="M1.4 190c25-1.2 49-4.7 72.8-12.5 21-7 41.7-17.5 63.8-20.2 2-.2 2-3.2 0-3-21.2 2.6-41 12.3-61 19C52 182 27.4 185.8 1.4 187c-2 0-2 3 0 3z" fill="#1c51a0"/><path d="M163.3 56.2c-.8-2.2 2.8-4.6 6.2-6 3.2-1.3 6.8-1.8 8 .5s-1.4 5.5-5 6.8-8.3 1-9.2-1.3zM170 26c-.6-2.8 4-1.6 9-.3a66.8 66.8 0 0 0 9.6 1.8c3 .3-2.8 2.6-8.6 2.6-4.4 0-9.4-1.4-10-4z" fill="#fff"/><path d="M170 26c1.6 8.7 4 17.2 6.2 25.8a.8.8 0 0 0 1.5-.4c-2-8.6-4.7-17-6.4-25.8 0-1-1.6-.6-1.4.4z" fill="#fff"/></svg>