<svg version="1" xmlns="http://www.w3.org/2000/svg" width="21.086" height="21.088" viewBox="-1.103 26.534 21.086 21.088"><path fill="none" stroke="#333C45" stroke-width=".5" stroke-miterlimit="10" d="M17.492 27.167h-5.588c-1.023 0-2.454.593-3.178 1.317L.073 37.137c-.724.723-.724 1.908 0 2.632l6.676 6.677c.724.724 1.91.724 2.633 0l8.65-8.653c.727-.725 1.318-2.154 1.318-3.18V29.03c.002-1.024-.836-1.863-1.858-1.863zm-2.475 6.196c-1.027 0-1.86-.833-1.86-1.857 0-1.027.833-1.86 1.86-1.86 1.025 0 1.857.833 1.857 1.86 0 1.024-.832 1.857-1.857 1.857zm0 0"/></svg>
