<svg version="1" xmlns="http://www.w3.org/2000/svg" width="17.343" height="16.532" viewBox="5.246 1.448 17.343 16.532"><path fill="#FFF" d="M5.523 14.982c1.52.984 3.33 1.555 5.275 1.555 6.338 0 9.805-5.25 9.805-9.802l-.01-.444c.668-.484 1.258-1.092 1.72-1.786-.618.277-1.284.463-1.985.55.72-.43 1.266-1.103 1.523-1.905-.667.392-1.41.675-2.188.827-.63-.666-1.525-1.084-2.518-1.084-1.904 0-3.44 1.546-3.44 3.44 0 .274.024.537.085.786-2.862-.147-5.407-1.513-7.097-3.595-.3.504-.47 1.1-.47 1.732 0 1.188.606 2.246 1.528 2.86-.562-.017-1.09-.17-1.552-.43v.046c0 1.666 1.186 3.057 2.758 3.374-.283.076-.592.12-.906.12-.22 0-.436-.017-.646-.064.44 1.367 1.705 2.367 3.215 2.395-1.18.92-2.663 1.48-4.276 1.48-.284 0-.558-.02-.82-.056z"/></svg>
