<svg version="1" xmlns="http://www.w3.org/2000/svg" width="29.227" height="22.465" viewBox="-38.577 -62.25 28.836 22.875"><path opacity=".1" fill="#FFF" d="M-9.99-41.873c0 1.244-1.036 2.248-2.31 2.248h-23.72c-1.272 0-2.308-1.004-2.308-2.248v-17.88c0-1.24 1.035-2.247 2.31-2.247H-12.3c1.273 0 2.31 1.008 2.31 2.248v17.88z"/><path fill="#FFF" stroke="#666" stroke-width=".5" stroke-miterlimit="10" d="M-9.99-41.873c0 1.244-1.036 2.248-2.31 2.248h-23.72c-1.272 0-2.308-1.004-2.308-2.248v-17.88c0-1.24 1.035-2.247 2.31-2.247H-12.3c1.273 0 2.31 1.008 2.31 2.248v17.88z"/><g><path fill="#666" d="M-27.783-55.982c0-.55.367-.74.816-.422l7.086 5.016c.448.318.426.803-.05 1.078l-6.987 4.033c-.477.275-.866.05-.866-.5v-9.205z"/></g></svg>
