<svg version="1" xmlns="http://www.w3.org/2000/svg" width="43.975" height="44.697" viewBox="102.568 -11.83 43.975 44.697"><path fill="none" stroke="#000" stroke-width=".7" stroke-miterlimit="10" d="M124.556-2.943c6.63 0 11.312 5.38 10.688 13.04 3.352-.09 8.514 1.444 8.514 7.153 0 3.71-3.018 6.73-6.723 6.73h-24.957c-3.706 0-6.723-3.02-6.723-6.73 0-5.38 4.76-7.37 8.513-7.154-.32-8.11 4.238-13.04 10.688-13.04zm12.478 17.308h-24.957c-1.593 0-2.88 1.293-2.88 2.885s1.287 2.885 2.88 2.885h24.957c1.592 0 2.88-1.293 2.88-2.885s-1.288-2.885-2.88-2.885zm0 3.846h-6.718v-1.92h6.718c.53 0 .963.43.963.96 0 .533-.432.96-.963.96z"/></svg>
