<svg version="1" xmlns="http://www.w3.org/2000/svg" width="96.167" height="89.742" viewBox="108.251 -40.063 96.167 89.742"><path fill="none" stroke="#000" stroke-width=".7" stroke-miterlimit="10" d="M202.094 33.478c0 2.43-1.97 4.4-4.398 4.4h-82.72c-2.43 0-4.4-1.97-4.4-4.4V-23.86c0-2.43 1.97-4.4 4.4-4.4h82.72c2.43 0 4.398 1.97 4.398 4.4v57.338z"/><path d="M119.74-18.297c.317 0 .632-.13.858-.356.225-.226.354-.54.354-.858 0-.322-.13-.634-.354-.86-.227-.227-.54-.355-.857-.355-.32 0-.634.13-.858.355s-.354.54-.354.86.13.632.354.857c.224.226.54.356.86.356zm0 0M123.622-18.297c.318 0 .63-.13.857-.356.226-.226.354-.54.354-.858s-.13-.634-.355-.86-.54-.355-.858-.355c-.32 0-.633.13-.857.355-.227.227-.355.54-.355.86s.13.632.355.857c.224.226.537.356.857.356zm0 0M127.503-18.297c.318 0 .633-.13.855-.356.227-.226.355-.54.355-.858s-.13-.634-.355-.86c-.223-.227-.537-.355-.855-.355-.32 0-.63.13-.855.355-.227.227-.36.54-.36.86s.134.632.36.857c.224.226.535.356.855.356zm0 0M137.95-18.297h43.89c.672 0 1.215-.544 1.215-1.215s-.543-1.215-1.215-1.215h-43.89c-.672 0-1.213.544-1.213 1.215s.54 1.215 1.213 1.215zm0 0M192.03-18.297h2.587c.67 0 1.213-.544 1.213-1.215s-.543-1.215-1.213-1.215h-2.588c-.67 0-1.214.544-1.214 1.215s.543 1.215 1.213 1.215zm0 0"/><path fill="none" stroke="#000" stroke-width=".7" stroke-miterlimit="10" d="M115.07-14.94h82.522M197.592 31.394c0 1.1-.9 2-2 2H117.07c-1.1 0-2-.9-2-2v-53.658c0-1.1.9-2 2-2h78.522c1.1 0 2 .9 2 2v53.658z"/><path d="M151.896 16.882V4.862h11.997v5.667c0 3.084-4.498 1.845-4.498 1.845s1.14 4.507-1.98 4.507h-5.52zm12.815-5.746v-7.09h-13.633V17.7h6.946c2.157 0 6.688-4.93 6.688-6.564zm-6.815 1.102h-3.407v-.683h3.407v.683zm3.408-2.73h-6.815v.682h6.815v-.683zm0-2.05h-6.815v.683h6.815V7.46zm1.363-5.273h-13.46v13.468h-.855V1.313h14.316v.872z"/><path fill="none" stroke="#000" stroke-width=".7" stroke-miterlimit="10" d="M132.923 9.887h-8.418c-1.81 0-3.275 1.47-3.275 3.28 0 1.81 1.467 3.28 3.275 3.28h8.418c1.81 0 3.277-1.47 3.277-3.28 0-1.812-1.47-3.28-3.277-3.28z"/><path d="M131.99 11.48c-.93 0-1.687.755-1.687 1.686 0 .932.758 1.688 1.686 1.688.93 0 1.683-.756 1.683-1.688 0-.93-.754-1.686-1.684-1.686zM132.923 1.452h-8.418c-1.81 0-3.275 1.468-3.275 3.28 0 1.812 1.467 3.28 3.275 3.28h8.418c1.81 0 3.277-1.47 3.277-3.28 0-1.812-1.47-3.28-3.277-3.28zm-7.483 4.982c-.94 0-1.697-.762-1.697-1.7 0-.94.758-1.702 1.697-1.702.938 0 1.697.76 1.697 1.7s-.76 1.702-1.697 1.702zM190.227 2.863c0-1.12-.904-2.025-2.02-2.025-1.117 0-2.02.906-2.02 2.025 0 .893.58 1.64 1.38 1.91.113 2.898-1.36 3.215-3.367 3.638-1.15.244-2.453.524-3.402 1.41V4.762c.783-.278 1.348-1.02 1.348-1.9 0-1.118-.904-2.024-2.02-2.024s-2.02.905-2.02 2.024c0 .88.562 1.62 1.345 1.9v8.345c-.782.277-1.345 1.02-1.345 1.9 0 1.117.904 2.023 2.02 2.023 1.117 0 2.02-.906 2.02-2.024 0-.875-.556-1.612-1.33-1.896.183-2.647 1.733-2.975 3.663-3.382 2.047-.433 4.564-.974 4.434-4.98.764-.285 1.315-1.02 1.315-1.89zm-11.53 0c0-.788.64-1.43 1.426-1.43s1.426.642 1.426 1.43c0 .786-.642 1.428-1.427 1.428s-1.426-.64-1.426-1.427zm9.51 1.49c-.822 0-1.488-.667-1.488-1.49s.665-1.49 1.487-1.49c.82 0 1.488.67 1.488 1.49s-.668 1.49-1.488 1.49z"/><path fill="none" stroke="#000" stroke-width=".7" stroke-miterlimit="10" d="M142.577-14.625v48.02M170.084-14.625v48.02"/></svg>
