<svg version="1" xmlns="http://www.w3.org/2000/svg" width="95.692" height="69.357" viewBox="110.226 -31.129 95.692 69.357"><path fill="none" stroke="#000" stroke-width=".7" stroke-miterlimit="10" d="M203.832 32.22c0 2.43-1.97 4.4-4.398 4.4h-82.72c-2.43 0-4.4-1.97-4.4-4.4v-57.34c0-2.43 1.97-4.4 4.4-4.4h82.72c2.43 0 4.398 1.97 4.398 4.4v57.34z"/><path d="M121.477-19.556c.317 0 .633-.13.858-.356.225-.226.354-.54.354-.858 0-.322-.132-.634-.355-.86-.228-.227-.54-.355-.856-.355-.32 0-.636.13-.86.355-.223.225-.354.54-.354.86 0 .32.13.632.354.857.225.226.54.356.86.356h-.003zm3.883 0c.317 0 .63-.13.856-.356.226-.226.354-.54.354-.858 0-.318-.13-.634-.355-.86s-.54-.355-.857-.355c-.32 0-.634.13-.857.355-.226.227-.354.54-.354.86 0 .32.13.632.355.857.225.226.538.356.858.356h.002zm3.88 0c.318 0 .634-.13.855-.356.228-.226.354-.54.354-.858 0-.318-.13-.634-.355-.86-.224-.227-.537-.355-.854-.355-.32 0-.63.13-.854.355-.227.227-.36.54-.36.86 0 .32.134.632.36.857.224.225.534.356.855.357zm10.448 0h43.89c.672 0 1.215-.544 1.215-1.215 0-.672-.543-1.216-1.216-1.216h-43.89c-.672 0-1.213.544-1.213 1.215 0 .67.54 1.214 1.214 1.214zm54.08 0h2.586c.67 0 1.213-.544 1.213-1.215 0-.672-.543-1.216-1.213-1.216h-2.588c-.67 0-1.214.544-1.214 1.215 0 .67.543 1.214 1.213 1.214h.002z"/><path fill="none" stroke="#000" stroke-width=".7" stroke-miterlimit="10" d="M116.807-16.2h82.52m.002 46.335c0 1.1-.9 2-2 2h-78.522c-1.1 0-2-.9-2-2v-53.658c0-1.1.9-2 2-2h78.52c1.102 0 2 .9 2 2v53.658z"/><path d="M153.633 15.623V3.603h11.997V9.27c0 3.084-4.498 1.845-4.498 1.845s1.14 4.507-1.98 4.507h-5.52zm12.815-5.746v-7.09h-13.633V16.44h6.946c2.158 0 6.69-4.93 6.69-6.563h-.002zm-6.815 1.102h-3.407v-.684h3.407v.683zm3.41-2.73h-6.816v.68h6.815v-.68zm0-2.05h-6.816v.682h6.815V6.2zm1.362-5.274h-13.46v13.468h-.855V.054h14.315v.872z"/><path fill="none" stroke="#000" stroke-width=".7" stroke-miterlimit="10" d="M134.66 8.628h-8.417c-1.81 0-3.275 1.47-3.275 3.28s1.467 3.28 3.275 3.28h8.418c1.81 0 3.278-1.47 3.278-3.28 0-1.812-1.47-3.28-3.277-3.28z"/><path d="M133.727 10.22c-.93 0-1.687.756-1.687 1.687 0 .932.758 1.688 1.686 1.688.93 0 1.683-.756 1.683-1.688 0-.93-.755-1.686-1.685-1.686h.002zM134.66.194h-8.417c-1.81 0-3.275 1.468-3.275 3.28s1.467 3.28 3.275 3.28h8.418c1.81 0 3.278-1.47 3.278-3.28 0-1.812-1.47-3.28-3.277-3.28zm-7.483 4.982c-.94 0-1.696-.762-1.696-1.7 0-.94.76-1.702 1.697-1.702s1.697.76 1.697 1.7-.76 1.702-1.697 1.702zm64.787-3.57c0-1.12-.904-2.026-2.02-2.026-1.118 0-2.02.905-2.02 2.024 0 .893.58 1.64 1.38 1.91.112 2.898-1.36 3.215-3.367 3.638-1.15.244-2.453.524-3.402 1.41v-5.06c.783-.277 1.348-1.02 1.348-1.9 0-1.117-.904-2.023-2.02-2.023s-2.02.904-2.02 2.023c0 .88.56 1.62 1.344 1.9v8.345c-.78.277-1.345 1.02-1.345 1.9 0 1.117.904 2.023 2.02 2.023 1.118 0 2.02-.905 2.02-2.023 0-.875-.556-1.612-1.33-1.896.185-2.646 1.733-2.974 3.664-3.38 2.047-.434 4.563-.975 4.435-4.98.765-.286 1.315-1.02 1.315-1.89v.004zm-11.53 0c0-.79.64-1.43 1.426-1.43.787 0 1.426.64 1.426 1.43 0 .785-.64 1.427-1.426 1.427s-1.427-.64-1.426-1.428zm9.51 1.49c-.822 0-1.487-.668-1.487-1.49 0-.824.665-1.49 1.487-1.49.82 0 1.487.67 1.487 1.49s-.667 1.49-1.486 1.49z"/><path fill="none" stroke="#000" stroke-width=".7" stroke-miterlimit="10" d="M144.315-15.884v48.02m27.506-48.02v48.02"/></svg>
